<mxfile host="app.diagrams.net" agent="Mozilla/5.0 (Windows NT 10.0; Win64; x64) AppleWebKit/537.36 (KHTML, like Gecko) Chrome/130.0.0.0 Safari/537.36 Edg/130.0.0.0" version="24.8.3">
  <diagram name="第 1 页" id="zT8fP4G0im92JGk3ruNi">
    <mxGraphModel dx="1380" dy="787" grid="1" gridSize="10" guides="1" tooltips="1" connect="1" arrows="1" fold="1" page="1" pageScale="1" pageWidth="827" pageHeight="1169" math="0" shadow="0">
      <root>
        <mxCell id="0" />
        <mxCell id="1" parent="0" />
        <mxCell id="vRT_TVWz7FN-6WbVA6KG-22" value="" style="rounded=0;whiteSpace=wrap;html=1;dashed=1;" vertex="1" parent="1">
          <mxGeometry y="523.75" width="1520" height="580" as="geometry" />
        </mxCell>
        <mxCell id="vRT_TVWz7FN-6WbVA6KG-83" value="" style="edgeStyle=orthogonalEdgeStyle;rounded=0;orthogonalLoop=1;jettySize=auto;html=1;" edge="1" parent="1" source="vRT_TVWz7FN-6WbVA6KG-1" target="vRT_TVWz7FN-6WbVA6KG-81">
          <mxGeometry relative="1" as="geometry" />
        </mxCell>
        <mxCell id="vRT_TVWz7FN-6WbVA6KG-1" value="" style="rounded=1;whiteSpace=wrap;html=1;" vertex="1" parent="1">
          <mxGeometry x="190" y="597.5" width="360" height="342.5" as="geometry" />
        </mxCell>
        <mxCell id="vRT_TVWz7FN-6WbVA6KG-25" value="" style="edgeStyle=orthogonalEdgeStyle;rounded=0;orthogonalLoop=1;jettySize=auto;html=1;" edge="1" parent="1" source="vRT_TVWz7FN-6WbVA6KG-2" target="vRT_TVWz7FN-6WbVA6KG-24">
          <mxGeometry relative="1" as="geometry" />
        </mxCell>
        <mxCell id="vRT_TVWz7FN-6WbVA6KG-2" value="第一名" style="rounded=0;whiteSpace=wrap;html=1;" vertex="1" parent="1">
          <mxGeometry x="260" y="610" width="170" height="60" as="geometry" />
        </mxCell>
        <mxCell id="vRT_TVWz7FN-6WbVA6KG-27" value="" style="edgeStyle=orthogonalEdgeStyle;rounded=0;orthogonalLoop=1;jettySize=auto;html=1;" edge="1" parent="1" source="vRT_TVWz7FN-6WbVA6KG-3" target="vRT_TVWz7FN-6WbVA6KG-26">
          <mxGeometry relative="1" as="geometry" />
        </mxCell>
        <mxCell id="vRT_TVWz7FN-6WbVA6KG-3" value="第二名" style="rounded=0;whiteSpace=wrap;html=1;" vertex="1" parent="1">
          <mxGeometry x="285" y="694" width="120" height="60" as="geometry" />
        </mxCell>
        <mxCell id="vRT_TVWz7FN-6WbVA6KG-4" value="其它" style="rounded=0;whiteSpace=wrap;html=1;" vertex="1" parent="1">
          <mxGeometry x="390" y="790" width="105" height="50" as="geometry" />
        </mxCell>
        <mxCell id="vRT_TVWz7FN-6WbVA6KG-5" value="其它" style="rounded=0;whiteSpace=wrap;html=1;" vertex="1" parent="1">
          <mxGeometry x="260" y="858" width="100" height="51" as="geometry" />
        </mxCell>
        <mxCell id="vRT_TVWz7FN-6WbVA6KG-6" value="其它" style="rounded=0;whiteSpace=wrap;html=1;" vertex="1" parent="1">
          <mxGeometry x="260" y="790" width="100" height="47.5" as="geometry" />
        </mxCell>
        <mxCell id="vRT_TVWz7FN-6WbVA6KG-20" value="" style="group;movable=1;resizable=1;rotatable=1;deletable=1;editable=1;locked=0;connectable=1;" vertex="1" connectable="0" parent="1">
          <mxGeometry x="405" y="873.5" width="70" height="20" as="geometry" />
        </mxCell>
        <mxCell id="vRT_TVWz7FN-6WbVA6KG-16" value="" style="group;movable=1;resizable=1;rotatable=1;deletable=1;editable=1;locked=0;connectable=1;" vertex="1" connectable="0" parent="vRT_TVWz7FN-6WbVA6KG-20">
          <mxGeometry width="30" height="20" as="geometry" />
        </mxCell>
        <mxCell id="vRT_TVWz7FN-6WbVA6KG-8" value="" style="shape=waypoint;sketch=0;fillStyle=solid;size=6;pointerEvents=1;points=[];fillColor=none;resizable=1;rotatable=1;perimeter=centerPerimeter;snapToPoint=1;movable=1;deletable=1;editable=1;locked=0;connectable=1;" vertex="1" parent="vRT_TVWz7FN-6WbVA6KG-16">
          <mxGeometry width="20" height="20" as="geometry" />
        </mxCell>
        <mxCell id="vRT_TVWz7FN-6WbVA6KG-12" value="" style="shape=waypoint;sketch=0;fillStyle=solid;size=6;pointerEvents=1;points=[];fillColor=none;resizable=1;rotatable=1;perimeter=centerPerimeter;snapToPoint=1;movable=1;deletable=1;editable=1;locked=0;connectable=1;" vertex="1" parent="vRT_TVWz7FN-6WbVA6KG-16">
          <mxGeometry x="10" width="20" height="20" as="geometry" />
        </mxCell>
        <mxCell id="vRT_TVWz7FN-6WbVA6KG-17" value="" style="group;movable=1;resizable=1;rotatable=1;deletable=1;editable=1;locked=0;connectable=1;" vertex="1" connectable="0" parent="vRT_TVWz7FN-6WbVA6KG-20">
          <mxGeometry x="20" width="50" height="20" as="geometry" />
        </mxCell>
        <mxCell id="vRT_TVWz7FN-6WbVA6KG-18" value="" style="shape=waypoint;sketch=0;fillStyle=solid;size=6;pointerEvents=1;points=[];fillColor=none;resizable=1;rotatable=1;perimeter=centerPerimeter;snapToPoint=1;movable=1;deletable=1;editable=1;locked=0;connectable=1;" vertex="1" parent="vRT_TVWz7FN-6WbVA6KG-17">
          <mxGeometry width="20" height="20" as="geometry" />
        </mxCell>
        <mxCell id="vRT_TVWz7FN-6WbVA6KG-19" value="" style="shape=waypoint;sketch=0;fillStyle=solid;size=6;pointerEvents=1;points=[];fillColor=none;resizable=1;rotatable=1;perimeter=centerPerimeter;snapToPoint=1;movable=1;deletable=1;editable=1;locked=0;connectable=1;" vertex="1" parent="vRT_TVWz7FN-6WbVA6KG-17">
          <mxGeometry x="10" width="20" height="20" as="geometry" />
        </mxCell>
        <mxCell id="vRT_TVWz7FN-6WbVA6KG-9" value="" style="shape=waypoint;sketch=0;fillStyle=solid;size=6;pointerEvents=1;points=[];fillColor=none;resizable=1;rotatable=1;perimeter=centerPerimeter;snapToPoint=1;movable=1;deletable=1;editable=1;locked=0;connectable=1;" vertex="1" parent="vRT_TVWz7FN-6WbVA6KG-17">
          <mxGeometry x="30" width="20" height="20" as="geometry" />
        </mxCell>
        <mxCell id="vRT_TVWz7FN-6WbVA6KG-14" value="" style="shape=waypoint;sketch=0;fillStyle=solid;size=6;pointerEvents=1;points=[];fillColor=none;resizable=1;rotatable=1;perimeter=centerPerimeter;snapToPoint=1;movable=1;deletable=1;editable=1;locked=0;connectable=1;" vertex="1" parent="vRT_TVWz7FN-6WbVA6KG-17">
          <mxGeometry x="20" width="20" height="20" as="geometry" />
        </mxCell>
        <mxCell id="vRT_TVWz7FN-6WbVA6KG-21" value="小组 （共六组）" style="text;strokeColor=none;fillColor=none;html=1;fontSize=12;fontStyle=1;verticalAlign=middle;align=center;textDirection=vertical-lr;labelPosition=center;verticalLabelPosition=middle;" vertex="1" parent="1">
          <mxGeometry x="210" y="662" width="20" height="148" as="geometry" />
        </mxCell>
        <mxCell id="vRT_TVWz7FN-6WbVA6KG-23" value="初赛" style="text;strokeColor=none;fillColor=none;html=1;fontSize=24;fontStyle=1;verticalAlign=middle;align=center;" vertex="1" parent="1">
          <mxGeometry x="30" y="600" width="200" height="40" as="geometry" />
        </mxCell>
        <mxCell id="vRT_TVWz7FN-6WbVA6KG-24" value="" style="shape=image;verticalLabelPosition=bottom;labelBackgroundColor=default;verticalAlign=top;aspect=fixed;imageAspect=0;image=data:image/png,iVBORw0KGgoAAAANSUhEUgAAAMgAAADICAYAAACtWK6eAAAAAXNSR0IArs4c6QAAEM5JREFUeF7tXV1227gOJuXTnG6iafo0ySqariTNStKsJO1K6q6ivU/jSTfRkx6L95CWHNlxJFIU8Uf4aaahKBLAR+ADQcr+evfmu7H22uhv45rm09Xmz6ZmUfy8eHth2/bfmmXQz90Zc287gXw3xlzULhQvkKvHpy81y+Hn+dkXa8xdzTLo5r65fHz6YP3/qFCezcE1zYdavYh6j4EddItlAIj//To/8261ei9ijfn6z+PTbY0rqIbbe60H7+H/bw8Q9SKD1cO526vff7/WBBL1HgdRhOei6wOAqBc5gEN1hF0jiE7/zq0vf//91FvD3oMELnLx9tq2rSfs1f9qIuwaPbzOQQ8A4pv97/zswRnzuXqEGGNqIey/zs+c6tuYU4viC4Bo2vdlJkOy8aj3eEnMh/p+ARBN+x7Cods8DIRN2k+J+fRieBIgStjrIOzqPca9x4ss1tAsVHjTqwtnj6Le44CY79O6xzp91YOoF3kRaonaYddNwZ1+pzaGRwGihF2mF9F0/rNeLx+fRjEw+kcl7DK9iG4K7vQas9c1CRANtWQRduWW08R8qPEogKhQZYRaSszjiHkyQNSLyAi1dKHr9HhUbzWWjYzyIIGLaJ3WXo4xsSu1FLB6jwPvEZ2RjAaI717rtOYJmQJYVHfxxHxWiNV5EX9eWY/nhhSIW7vV6pbD6UP1HmnEfDZANO17xEWYnGHXtO487+GfSgqxevNQgT+vSNRvQlFiPt97zAaICp1P2lfPenTeY3elU3JV9iwPomlfHmlfXcjS07rHCZXZANE6rYEoE/LqUBktJebPkp6qt1pkH+RUJ7pCDUItYjehqG7mE/OsLNYxUJSw0yPs6j3yiPmiANGVih5h17MenfdYwKvP5iBDlKkXGYAE+epSLQlaznvMTvMeh1mqFDqEXRerfVo3ut6qGEkfdqy1PviEXcPdZYj5ohyk70zTvgfrEPjVpUrMlw2t+t4W4SB7kOi3JfZagi6JV++xvPdYjIMoYT8dxUJdXareo4z3KAIQXcl2yvLXybTO/YD4jEJIkmy3d8Za/32Xar/xUuIWzEVDrB7HNWVSAhCM+c84tzGr1ZrC+RAPGLPdXnjAWOc+VgGcQuU+RQDSpX0fJK5mvWegAoaxFOXwbwE0bXstFTClwtkiAPGKkRJqcQXEFHD2gDHmhvtCVjIhUg4gu88JszyeC8kfpgwZ4u8eLE3b3jhj/OfAuXGY/fcES8iqGEC4eZHaQPGaMXEj/CW9R5Es1rHgqRP2AIymuadArkusgDl9/nz35rO11n8znapXKeo9QABCtU7LLVDpmWN8nJ6lCpQSad1jvRQNsfqXkanT8lf1GPMNYm+CEwBixzoIvzxXQf2VDq36yYEABL1Oa3eHlQ+jkg/to1oB0ZcTSOMXD61AAYJJ2DWUKocyrNALynuAcJCheiAJO6QQy5kgj567EBoqRQzmPcABArF5qFkpHFD5MLpp2ztnzOeSI4Ag5sPxg3AQIC/iz2D4u3KVZ5S00Im+i4ZdheqtxqYEDpAiaV8EwSHaIPlXl/ImpeqtSAFkacIO7XLJWyehAS7pTbA4JbgHCQBZok6LodfwBhPsd3duwzTGvO/t2Tl3sFttrd34v4VS+udGvqTe//uGy85/0PV2+2Cszdk7ASXmqBykf3kOYcdaTWIX5wAEay88AIoWADoX+Jaz9odpGv/fZIHDVd8oHqQ3tDlpX4ohlQdEY+3HomCIRWcPmtXqnhpgZoZcaN4DPM17rONOYP5g1fSP0BedSAFiSnLOrX241jbNNwoZvtRdeOwFEdWDeN1GXZNJgG8wPzOxg5FfZHbh2FdsDhOjdwqhNDpApgg7tpBmhgVT6zr+3wmAZYKXoIZWvYLQATKW9sWqoyqVx8dHxekRYFYfvAYS7IWRFEBCqHV+9u/wYA5G7DkIo4qWS1AFCtaXe0+AhIT3QCfpQ0MZCgkaHJTOOZAAD8LxgE7/4QIJaP2PyZxEiDVM+0LXU8WQRRJGizAI6NCrzw7+8/h0izDdk68kBRBIoeRsXEGOk8K7PBfkdg/YUnKrDiAaTs00HYSwa+ZIF32sKoBoOJVvO9BhV/6I83qoAiCpu7d5Iq3iafDvn2BJVTxAlGuUMy0qexXlZhhu6Zf5W6jMWqZwlpwVoRq5JafV9yUSIEVOLZaQvpw+xYZc4gCi4MBDHVZpUMkZiwJIUvl8SalW3Lc0kIgBiJJxOqiURN5FAET3N+iAox+JBwmFcye5kmEPEAVHrgmUe16CJ2ENEDK3xpezMfY9cwcJW4Ao5+CDHc4gYQkQzVbxAceQk1w9Pn3hNnJ2ABG7z9Fd1yP5m+YcU8CsANJd8OCP5sr5nSjVkHz0F+N+3RxjYQOQqdtPcoSA9awvHR87PSeUZ7EqS2EDEIHp3KiLCebcPokF+Nj3ciLtLAAicSWNDTWkJiS4gIQ8QISS8ijv0a/IEr2In1vsIhHrmUq0Iw0QkaQ83ADqblM+RS3Rg3bGTJ6P0AbI+dkXa8xdiZUBsc8k7yHeixhzT3l/hCxA1HscQliwFyEdapEFiMCslbf4Wd5DuhfBuvI0JoogCRCpq2Vu5kaqXAJhJxpqkQOI1NAq13uI9yJEs1r0ACKTmC+2QqoXiQmMlmtDCiDqPaYVK7HkZjhransjtACi3mMaIcYYyQfFqHERMgAR7D3M5ePTonIWWl2wXxwoeZFFFRe1/L3SSGpsXWpFVC+SY23xz5IAiHqPeIX1LdWLpMtszhM0AKLcY47uXnzXcVYnRB8q5XlTp0sCIL/Oz1zqwDm0Lx1LqxcpbwXoABGrZOfWl7//fiqtQqml8GF3PbHquYSs0QEilWyW9h57LvLuzWdr7UMJ48Duc+pIMsT4UAEimJxnFSWmKl60F2maD1ebP5tUmSzVHhcgUsl503y62vxZL6WkqX4k765jh1moAJG48mFlX8SCBIjLvbYIoQFEYniFBY6hcrsN1xtjzMWU5+Hydyg+d0oeeADhHF45t7bWblpj/jPObcxqtcaMk48V6xefAJC2vbbOfexua/TNWIIGM8xSgIwsoz6L4v/cOvcjNCMGhFQPMAROY8x759wFh6tOMbNZaAAhtDm4scYEQh2AsFqF/6bkEVKBkNp+D5ztNgBm4HVoeBxEHoICECT+EYBANSxKNWqo9n4jN7yrD9f8f1u7+zfAHxYPwQEIMP/AjGEBbQjsVV31g9+cBPMwWDoUDxAKmSUwywV+EWSaHouHoAAEUrBLH1YCtkHSrwOto0PiIVgAgareBS35IG3NhQYHmWzB4CHgAIEm6OpBCiGj61YBsrB8Qd0y0buWFhYpWnfQix0GUYf3INAZLKI39qFZ9YIvhr5HQAGyoPKGXWHEroWmQqZbaO8Rtl8mPllXQjjgHgTpUmry36EoodxSfQZwbLcP4BuGCJkseICcn/mv1IJtMA2MREGyAGLQwLEbO3hWEgMgUCneU+agIMkACYEzJwqQDP3FPqogiZXUoB0G5zg1TOi0fW0eZC9zJe7xKIFOzY+NTDRAqKxCvQIw0obxZkmjJSVweIlAL2ygHoQaQILACdy9RAMKL0dBDRwKECRL0YrfE+Aget+WdA9ybdv2OxIORl+rIHkWD/QOeYo9OOArlaoPsYbKUZDQ/ziPdA9yYdvWbxSS/XmQmKb5WtOZ9F4ZSFUOSbYgGiBeEpDl0UmSHzSuESQcwOFVJDrNywUgASvOrd1qdVuDJ+ECjloAglWLle5QKgAJJ3DUUovFByA7SIksTUEuOkxfrDpdXD4+fZj78JznQLNYXYjFDSAo5xDmKDPlGWaeo5+a/GJFrh/Mgc6epBh7alvK+xzjm1UwX+0ajgHcg7AFiKCSFKbew2DsU4ED5CfREoapVVhSzRbkvWRTck35ex0AuXhLttxkTFkYykkxnpS2XEMs6DITL1NwD8JqL2S4eQhcA5Ri8KltKVbpxswBepMQEyDcMlng2ZMYg8lpw6Gi4Wh+KDrA8SDv3nwHvxEjx5oQLgvIG+700+x4CMKNJmgehFsMLIl/9NDhlsnC0gGKB+EWA2OQw2kfkNeCW7odSwcoAOG2o45BDvPMf/ppbul2LB3gAYQPD0Ehh9MmnteCmRdH0wEaQLjwEIz7YPNMP/5pLpksLP6BRtL9i7msYJjKiTf1eS25ZLKw+AcqQLjwEEzlzDP7+KeYZLLQwit0gDDIpKAqJ97U57VkIH+UAsWhNNE4CJMwSzRAOGSysI8ZoAKEepglmX/oAhXnddEBQjmbJZl/7HfUz88wP0cxaqUUFih8gPivFe1uW8T4qM6ogqA2p7pQ564fjDPmG9TdXJQzWVDyHzMCdICEMIvmpmFx/jHlPf0hLbNarUtePURU9t4siss/JsgiARCKZLHkBmHifDfOuftSQKGayaJygpMEQCiS9RLx7yCUSg8n/R1dxny7+v33a8zKF9smEayx3ea2I+E90PdBhlKkpqglCXoWMI5NbXeZ3f3V5s861wqpZrKoeA9SAKHmRZYgiKGcZru9K3I4bCGgEPyoERnvQQ4ghLxIlpKKAuO0R8m6Q5hS0SIl70EOIJS8yBwPAgqMI6D4pELbND702qSEXsQ8SNbClDLv2LZkSHo/4KnUZ+zEctullDh4I2va9s4Z8zn3vbnPpwKFirz9vJfkfbly7J8nBxAy+yKRN7tTTpNOpYZJHTlAupRhCkgkAdK5ffTd9bHVmNLKO6bk1zYbCfG9MPwUjz1l1Ev+nSRAQvrx/OyLNWZffrHkpJP78t7E2h/+ucaY9xRCqdQ5hK9mPY//mlJpT4k9p1T5vNaeLEAoEfalhK39nJQAOWI+HCVpgJCKkdW6i0iAIjFnAxByoVYRE6m3U8qhFeks1rHJUC7Jrte8M2dONGt1PCvSIVY/WCpZrUyT0MefJUCad7AKsfYg2X14x2e10ith1TRJSYA672AJEOUjpGx89mA48A62AAmpX5qnD2cbTFUPMuEdrAESQHJ+xu0DPFXh4ORkGYLDz4MFST8lcAUJK8yxIeUss1inTEEzW2wAwhYcrD1IIO2ErwxiY75lB7rpMlZJZ1TKDimtd7Yhlu6RpCkaobUHhz/puMjZeYTxh1eyB4h6EizTGX2vCHCIAYiChBBImGarXpOgCA8ynBzVE36ETLjcUISBQ5QHUZCUs/uYnkveRBnz/lJtxHmQPXnfnUi80dqtUqbz3C+38pEUiYgFSMdLrm3bPihIUkwiqa0YMl4NBzk1UeUlSUYf1VhqSHU8edEeZDjZRe/HjTIhuY04lavnaqEagOxTwdvtQ5G7cnM1weH5yLvCOEwldoxVAWRP4P2l0spNYm3EtxPPNarmIK9Nvrt7SzNdI1CRnKGKWSGq9CAH3OT5Xl1Sl6nFKK9km9Q7fkuOBbPv6gEyDLuatr1xxlQNFAXGIRwVIEfL0+Cm9qqAosA47acUICP+u9s/EQ2U2jnGVPimAJmS0O5g1rWk8KvzFt+4n9WIUF12EwVIoggHX5Hy93OxuaMrgMK5H0t/JTdRfOyaK0AyVObBYtr22jr30VhLCjAeEH5qCooMBUs5UZgnguWexgSMAmI5PQ57Ug9SRq6hV58RC2HYdnvhPczA0/RvTQnRwsUH1phwxtt7BrNa+X/bpH64s+CUxXWtACGg0g5IfiQeMPsbQNTw8ZWjAMHXgY6AsAQUIISVo0PDl4ACBF8HOgLCElCAEFaODg1fAgoQfB3oCAhLQAFCWDk6NHwJ/B/uplnakvPufQAAAABJRU5ErkJggg==;" vertex="1" parent="1">
          <mxGeometry x="470" y="618" width="44" height="44" as="geometry" />
        </mxCell>
        <mxCell id="vRT_TVWz7FN-6WbVA6KG-26" value="" style="shape=image;verticalLabelPosition=bottom;labelBackgroundColor=default;verticalAlign=top;aspect=fixed;imageAspect=0;image=data:image/png,iVBORw0KGgoAAAANSUhEUgAAAMgAAADICAYAAACtWK6eAAAAAXNSR0IArs4c6QAAEqZJREFUeF7tnW1S3DgQhi2YPcfCSUIqbBWcInCPEMiSe4Q9RaYqpMKeBPYcgXiRx3I8HnvU3fpqSc2fDYv81d2Pul9JltW79ecvzejnoP31r/m1bdST/vf9+dXDuI38WyxQggXOvt4c6ed4bg6PVNMetY3qfh/iX6n36nR920Ie1sCimraDxvxugNK/r5qXp/X5Tfd3+RELpLSADv7n5vBiFOx/Ggj0f6H3pnQGeQ364UTQA/e1G8M0/Ltt/xvDJTD5sHQd59jb06vmTd9hD0GPAcBmwSCA2C46/buGSMNjYNJ/Vz1QJjPp/yfZCWtZvu37Hr4rbbYCfBTwPgOdagl1+vX2plHNNfUEsY+bZidd4n07/3gX+z7kenYLDGUOs6C33/mmRddx//X174tWqS2hDj0Bh3bdQ7TtpQwkcPDG9j2crm9/NE1zwu/OwHf0oDPISaMa/SDZ/mhI/mif30oJxseFBcChM8hdEYCYdPj97MMxnxCp905yK9sXPdU2n1RXJ6rDxxLcqYn/fvbhsoRnyfUZSqhIBtuXBkivrD7dn1/d5BpgOd93SZ2t9oPWtkr/49368yOHITUfwSGi3YcVaecoQXeMn3wApLQHE9FOC3CXo0qLIW2LVfty3GWQEh9OQyKi3SXk4ceGWI0Bv3q4lkUD0o9siWgPFz/dmYsS5RNb3Z9dKaNBvK/HCuwX+OnbRkQ73FqoliXDoQ0xAFLMuPWSewUSVOBDGpc2YjV9ZlOidxkk9+UmNofKyJbNQvi/l6hbJ1Z4uD+7ersR6QUsN7G5WEa2bBaC/70COLplJnrSuRpAetEuI1twDmZbFl+O90+9BUjp9eTY07IchU5IDZXGYJ1et3YZpCZAOgOIaEdTUhUc/TIT/Z5RB0inQ4DvpqMty/AAEe04p+gO9Kda/ShlORLk6fUyky1ASlqPBTGAiHaIlYbqQr9Ql/OLT7CH3a7F3+qX8MYZJPe3v9BGkOUodpPVMGI1ZwW9zES/gFc1IP3IlixHWeCkVji0OXYAKXXBmb2PFNE+Z6NahnOX4kMvM9F/+51BMtvdBBT4iEZGlCEOKbZpbSNWU0eOS28BpLeOjGxtDFHdkP98N9ctM9nKIKWvx4J09zKyVea7QRDfbw9g/d7bYJxBst/+B2uIufY1j2zVLMoFEAQ9NS5HqV2Ub4XHaKXFkEGk9pwQVNFylNpF+U7fKYDY00ktol06xt1YGI9oDhlEN6tpPZYdkc3mxaVvaSq6QwCBsLDYpmTRLnAsuL1tunVYW8O8kkH2cjSMizvRxuhgEeXLzjDLTHYAqW1FLypeCxLtIsr3e94sM5nLINWt6MVAUsJyFIHD7nEBxG6j2RYliHapEuzOXwSk6hW9drt1LXIW7SLK7U6e+nd7mLfyFb12821a5DjTLqIc5t2pbwUQmN12W2Uk2kV3wJ1sA0QWLMJtmcXuKAIHxqG71cE0gwggCHtyX44iy0gQzuyb7s0gYlCSQdkuRxFRjvfndM+0rQwigBAMujmE3Uy7wEHz5XSuawsQfUpZsEgzLKfdGmXEiujD0Y6K5gw7gMhEEt24HCARUe7gv80Y/rBQUf+6m0FkLoRs4dSiXUpksuvM/NbO7v87gHRllkBCtnTK5SiiO8huW1whMQuIvkyNGxbTzbt9ZIrlKAKHk/cWB1kWARFInAwedTmKZHwHX1lWROwFxEDy3BxeNKq5driNOg+NsBxFRLlDaE0E+dyZrICYg6SXojki5DskAgfNJxidCAZkyCbq8JF2W3UeFWpkSzQiMZ6QWR0FiOgSmlMwPRb0CiLKoZbatKN2VGhARJfgHGNa+xzZEjjQPiAvBSIBIpCgHWR6MeeP9YgWRNoeWVJNz04GxJxIdoWP5zAR5XBbU0sq74CILoE7zaUWFjjgdvap+ZwziLntflTlWjXtBfxR6myJdaCssULFCVlvzF3FGyCiS1BORO2OIqIcaFtHvREcEHMBEZIwh0J2RxGNB7PldJk68ChrM68ZZHw1cazV9psGll6vK69kqc+iMX2J8aULBANkKLlk5t1OCgQSdfjl9dXeE/vJqmrhVW9EK7HGF5IlEfaAhfSCvVAXSHpzQspTu+XtLYJmkPEIl5QJ+50BGdkSSDY2DLkAdOqlKIDICJe9p9rIEbXzyuf0yJohgWRamKXhraIBYm5JRrismcS6HKVGSCAZFh728JbRATHZ5Kda/VBNewS/1YpaAsbzK4MkuBhPMoq1L6RFvO8HHlJnVwEJoLMI2XUmySAi3u0uhZYUpUKSQm8kGea1h4JsM7RkI4hoHwZACpongXYOkNhybZM0g4xvXkqueVdCx/sLyiTJ9AbbDDIuuUS8z7gJWIdnDwnwOV2zAuZ4NhlEdMmy2zD1eLaZGLAFDyawfbVlB4jMlyyWWuDvkOQECQZ+X0GPOQ9bQPRDyFt0266EivaM5ppY6Q32GmTuBnPqDTE9k0NbcFCxth1DvZElIMMwprwT8dt/iOBiCQlTvZEtIKJL6CNb7MqtjODQtmOtQeaIFl2ysQpW3LLIJJnBkSUg7HpEBzHheih2xjkVJFiYXe3i8/jsMoh5eHlX+3cm+X724RgaFLEhwYy8QZ8hZrtsARFdMtbsyvoOyTioYkECXSYTM+Cx18oeEP3Aokvsu6NMAyM4JIiRNmzQxmxfBCCiSzYhA3mHJHQmyVlvzIFXDCAjSKrd/pQSnD4zCXbQIGYmoF6rKEAMJDXvoEIRxZ4gAc/wU4M1xXHFASLivbMAOlhdIClBjC/BVywgvXi/qfbrvASRTIEEq3tSZAGXaxYNSO3inRK8UEgoesclUFMdWzwgNUNCDWIbJBSdkyrAXa9bBSA1i3fqyNISJCXrjeKHeSG9RY07O1J7/B1ICLoG4hPObarJIKEnyDg7Wd8btecfNoLYwPHA/Tl931+VgFSrSyrMAK7AVAtIjbqEKtpdgyzn46sGpMZJRapozznIXe5dAOmtZxvadDEyt2Opop3bc8S4HwFkZOXKIEG9QxIjGDleQwCZeKWqNxVFtFuZFEAWTFTDfImIdisf+e1qYn8kfy1qeFNRRPv+eJEMYuGpBl0ion05CAQQQMLpISn6TUXqTDvAfFk3EUCA7qtCvIto34kGAQQISC2TipR3SJAmzKq5ANK766+vf1+8lhlH9+dXNzYPlqxLZGRr2/sCyHRfLWCZUTokf7TPb9fnN0+2zqL0v1cPSL+c+9E4uu9B/4FmklJ3UJGRrU1EVA/I6fr2x+suICfjnhADiT6u1ElFGdmqHJA5OCiZRB9TbMkFLDlLLbWqzSDT0mrOwdhMUiIktYv2agHpRq2U+mLr+SiQFKdLKs4iAoiNkN9fcwIJ9xLnS2rWIqwA6TRBpM0BsMKaUmpAsxSA0aRNYgGiF4eumpcnTsPLbAAZBHOk79i9W3/+opr2AhN5FEgK0SXovX4xdjVtdYfySx1cc5qDYQHI1mhSPEAeVdMeYR1ZIySx5kRMxuW0BD85IDtDrZEAOV3ftlg4JkPAl5h9orJf7BjBL+OSlAskSQGZnYeI7IiYkOQ8qRhjEeNUs3GAJBkgS5N0MRyxb4IQAwyl3OohOWlUo2fwc/oJrkPmBjVSQ5IEkH0BGhoQ3yNLVEhyE+8xdMiSb1JCEh0QW+8dGpB3688kcb6vq3eBJKdJxdDDvfs6r1SQRAXEBkcXhAE1CHbuA1P/UB2Yk3indgRQO9qyO9XG0OvPtYsGCAiOgICEhGM8ukUdw49xfy6BMn7G72cfjn2ca3oOGyCb8FBPVBtT7jkKIGA4AgFCmRSkGNPVgbnoklClFgQQVxtj/RocEOzeUj41yPBti8n7HlgjYdu79HIZQeK9J4cCEhOS4IBgg3Rfnath0ytw96XYvqbXM+R6KPUaG9y+2rtCkoN4NyudV83LHWT9lPbNvnaoSiNQtTH1f3BA9AUpkBy0vz59O/94Z254nImMY/T3wPXf9ZIRveHC69zCm+nbgb4CnnIeF0j09XLSJdoXqm31iufZr1AN/ltYOo8ugwMO5ox9HQUQKiS9wW+wZRolmEMd4wGSrCYVu86raZ/6Tuy/wa7jbD6BhCscm8434g+2vtZG7nom5KrbiI8EupQrJFi7gW4qdaMeEs5wRAfEZJKfavWDspI2tU9dru8JkqK3P7XaN1JZlaTEGl+0yB7R6t2ugdN6ppwmFWHmQLRKAEeSDGJMUhskPmehcxHviPDf3zQRHEkBqazccsocc9FTTQeTEI7kgNQASahZ5xpsF3JdHjS7RR3FWrqpknrDfuSte9TpXA7UKZh22nYvzcHJL3XwxswHFTEAkjhzGB+wACTn3nA8aYl5BRcDAaWtAadV6j2nyVPQszCBg0WJlePoloECssE1KCACNxplGT1MjN6oIvDtbZ+eERzsAMkik2S8yyD3YWKfC1V9Qc2mxOKeSXwO0/pyHvU8HIeJOcLBMoMYp3MT7qv25RiyYpUatLGP4wQJVzhYA2LKrWd1OHzcJnYQDddjVhf7sgN6ebmvC4/OwxkO9oDoG0QvZvPsxJDzGJ5vFX06yCcg0CfFHJCBnmOpQYyNOSxzL620msZvyg7IdQEnhkVqW7aAcNAgJWePsdZLWcbG2G+LCgfrEkvqYxe34o5NbWvOHRHLDJLaYSa87s+uWNoHF/721inLrNFAyCeOE6/sAoDL8CP31G8Pe3gLDjbnOs/EChAOotyEFee0Dw99WEsuduco2tkAknzIcRJLNQHCyfbcMjcbQLjojhozCCdAtP05dU4sAOEGRw+J97cAYQVP/FZcSqytJ2cyiZgcEA4CcS4kuYrGEPhw7KC42D8pICx7rlEEcquHQ8DBYoh34cE4iPZkgHCrexd8VHyZxd0PqTupZIBwTOsTSIqHg8tyE1tmTCnakwAicNhCIv7fuWeS16GtJDPt0QGJKcrNDiPY97BrWWIyxRDzfY5+OLbbqDrGphCpRHtUQCKL8q5Eonx6wewqH78fT3dFop0uV83LU6xvmaQQ7dEAiZrCJ+mY6Hz9rYubdCEb78pE+1yOtzmKVRnEFu3RAImmOxZejyUGQfGQEO2yBcdY7MfYuT+maI8CSAw4IDUqMRiygkQ/Iyb3PKvDL1ANAbZxc3gR+vN3sSAJDkgk3QEeksVCggm2rm3iDR5ClToQOMa2CnUfsZejBAUkChyE4b9gkCSGQwdPiM3hsHCYIObqf0ynFxSQd+vPj9ghVujNU502mRwDlxfW+2IAx9azeSpzfNg5pC5xvT+bX4MBElJ3+Bru85ZJGMHhExJfwRciq40D21c8zMESBJDA9SdYb9h6h6EkQQjVnXMyhMMHJL7giKVLQg3/egckaN1J0BtBIWEMhwskIeCIpEu8dp76nr0CEmoyMKTDyJokAzgokMSydTBd4rkT9QpICN0Rsr6cZhewJskIDgwkMeDA3A8k+8/qhra9/Hb+8Y56/Pg4b4AEguPu+9mHSx8PCj2HFZIM4YAEZUw4QusSn52qF0CCiHLPqRIKyF7hnjEc+yBJBUdIXeJLtDsD4luUp3bWoiYpAI45SDjZ27cu8bEcxQmQAKLc+ygEJnPMaZKfanXdL39/cDkXt2OHuYmmeeDy8dEg8yWOlYgTID51hw/auQWh3A/NAj5LdtcMSQbEJxzcvzJEc7Mc5WIBn6W7i2gnAeKLcFe6XRwgx/K3gM9vxFBFOxoQj2Sz0hv8w6XOO/SpSyhl/A4g/Q3pl25OWqX+PGh//avp00LOmyh3FE51hkrdT+2ratG7o6yal7vuPXr9+o5SfxrLzg3GbAHiMTsse7Og4dK6Qzb+0/ssuZbufqpXBkBCb0HpIpTiu0KuyNUCPSTXr9sNdRkgxM84VjtAQsPxWq6J3gjhyUrP6VOX2DKJCg6H6I1Kwzj8Y2M3usPeUTfK6nM+Y3wDMoSLdYe0p1ggtC5RgYS5lFQUb8sxJAuEKrn0sLCyLu9G3jJlrBl5CWkuFpi1gLeh4P7sq/bluBPpvmo5WTIikZvaAr7m6kxH3wHiLYvIHEfq+JDrb0Zl3beb6mN5mAfxokVkxEoClIEFTte3rdNtjOJ4OpN+47inqohzJ8/Iwa4W8CAXtmJ4CxAPpZYA4uphOd7JAi6AzE1NzC9WpG+kJoA4uVcOdrWACyBzG4/PLnenTr7IEK+re+V4VwuQtfTCANPi+yCkcktGsVz9K8d7sABmFMu24mPvC1PIGUoprzw4V07hbgFEmWWNWdAbhXqGslXq/dKnDGQpu7tT5Qx+LWCdVQdOSYAAGSYTZ745YUtRfh9bziYWgFlgT/XzsGpfLtfnN/rz1dYfMCDmTPrCL82Bfh33/asoP9LLS7jsq2R9WmlQlQUMJF3107b/6FdtoWAYQ/0Pn9H7TIEj/ZIAAAAASUVORK5CYII=;" vertex="1" parent="1">
          <mxGeometry x="477" y="709" width="30" height="30" as="geometry" />
        </mxCell>
        <mxCell id="vRT_TVWz7FN-6WbVA6KG-28" value="晋级" style="rounded=1;whiteSpace=wrap;html=1;strokeColor=none;" vertex="1" parent="1">
          <mxGeometry x="458" y="664" width="68" height="30" as="geometry" />
        </mxCell>
        <mxCell id="vRT_TVWz7FN-6WbVA6KG-29" value="进入复活池" style="rounded=1;whiteSpace=wrap;html=1;strokeColor=none;" vertex="1" parent="1">
          <mxGeometry x="457.5" y="740" width="68" height="30" as="geometry" />
        </mxCell>
        <mxCell id="vRT_TVWz7FN-6WbVA6KG-52" value="&#xa;&lt;span style=&quot;color: rgba(0, 0, 0, 0); font-family: monospace; font-size: 0px; font-style: normal; font-variant-ligatures: normal; font-variant-caps: normal; font-weight: 400; letter-spacing: normal; orphans: 2; text-align: start; text-indent: 0px; text-transform: none; widows: 2; word-spacing: 0px; -webkit-text-stroke-width: 0px; white-space: nowrap; background-color: rgb(251, 251, 251); text-decoration-thickness: initial; text-decoration-style: initial; text-decoration-color: initial; display: inline !important; float: none;&quot;&gt;%3CmxGraphModel%3E%3Croot%3E%3CmxCell%20id%3D%220%22%2F%3E%3CmxCell%20id%3D%221%22%20parent%3D%220%22%2F%3E%3CmxCell%20id%3D%222%22%20value%3D%22%E6%89%80%E6%9C %89%E8%8E%B7%E5%BE%97%E5%85%B6%E5%AE%83%E5%90%8D%E6%AC%A1%E7%9A%84%E8%AF%BE%E9%A2%98%22%20style%3D%22rounded%3D1%3BwhiteSpace%3Dwrap%3Bhtml%3D1%3BstrokeColor%3Dnone%3BB22%20vertex%3D%221%22%20parent%3D%221%22%3E%3CmxGeometry%20x%3D%22692%22%20y%3D%22618%22%20width%3D%22135%22%20height%3D%2240%22%20as%3D%22geometry%22%2F%3E%3C%2FmxCell%3E%3C%2Froot%3E%3C%2FmxGraphModel%3E" style="rounded=1;whiteSpace=wrap;html=1;" vertex="1" parent="1">
          <mxGeometry x="655" y="594.5" width="360" height="342.5" as="geometry" />
        </mxCell>
        <mxCell id="vRT_TVWz7FN-6WbVA6KG-53" value="" style="edgeStyle=orthogonalEdgeStyle;rounded=0;orthogonalLoop=1;jettySize=auto;html=1;" edge="1" parent="1" source="vRT_TVWz7FN-6WbVA6KG-54">
          <mxGeometry relative="1" as="geometry">
            <mxPoint x="935" y="736" as="targetPoint" />
          </mxGeometry>
        </mxCell>
        <mxCell id="vRT_TVWz7FN-6WbVA6KG-54" value="前六名" style="rounded=0;whiteSpace=wrap;html=1;" vertex="1" parent="1">
          <mxGeometry x="725" y="706" width="170" height="60" as="geometry" />
        </mxCell>
        <mxCell id="vRT_TVWz7FN-6WbVA6KG-55" value="" style="edgeStyle=orthogonalEdgeStyle;rounded=0;orthogonalLoop=1;jettySize=auto;html=1;" edge="1" parent="1" source="vRT_TVWz7FN-6WbVA6KG-56">
          <mxGeometry relative="1" as="geometry">
            <mxPoint x="942" y="820" as="targetPoint" />
          </mxGeometry>
        </mxCell>
        <mxCell id="vRT_TVWz7FN-6WbVA6KG-56" value="其余名次" style="rounded=0;whiteSpace=wrap;html=1;" vertex="1" parent="1">
          <mxGeometry x="730" y="790" width="170" height="60" as="geometry" />
        </mxCell>
        <mxCell id="vRT_TVWz7FN-6WbVA6KG-78" value="所有获得其它名次的课题" style="rounded=1;whiteSpace=wrap;html=1;strokeColor=none;" vertex="1" parent="1">
          <mxGeometry x="692" y="618" width="135" height="40" as="geometry" />
        </mxCell>
        <mxCell id="vRT_TVWz7FN-6WbVA6KG-79" value="" style="shape=image;verticalLabelPosition=bottom;labelBackgroundColor=default;verticalAlign=top;aspect=fixed;imageAspect=0;image=data:image/png,iVBORw0KGgoAAAANSUhEUgAAAMgAAADICAYAAACtWK6eAAAAAXNSR0IArs4c6QAAFPxJREFUeF7tXW2OHLcRZc/qEoEUaH2SSEDWyBESIYClk8h7Eq+BQM4RgmwAr07iNWIhl9BOx9UznGFz2Kxi8WN6lm//CPawuslX9ch6/OrB4A8IAIFFBAZgAwSAwDICIAiiAwhEEABBEB5AAARBDAABHQIYQXS4waoTBECQThyNZuoQAEF0uMGqEwRAkE4cjWbqEABBdLjBqhMEQJBOHI1m6hAAQXS4waoTBECQThyNZuoQAEF0uMGqEwRAkE4cjWbqEABBdLjBqhMEQJBOHI1m6hAAQXS4waoTBECQThyNZuoQAEF0uMGqEwRAkE4cjWbqEABBdLjBqhMEQJBOHI1m6hAAQXS4waoTBECQThyNZuoQAEF0uMGqEwRAkE4cjWbqEABBdLjBqhMEQJBOHI1m6hAAQXS4waoTBECQThyNZuoQAEF0uMGqEwRAkE4cjWbqEABBdLjBqhMEQJBOHI1m6hAAQXS4waoTBECQThyNZuoQAEF0uMGqEwRAkE4cjWbqEABBdLjBqhMEQJBOHI1m6hAAQXS4waoTBECQThyNZuoQAEF0uMFqJQh8efft9+M4/mkYzCNVaTTm86tP93elqgeClEISz6mGwP/++pdrevgf/vmviQT0R//vaXj6YRjMm8CLH40Zfnz56d/f51YKBMlFEPZFEaDA//ri6/Vmu3mzHxnejKN5ePXT/VtLjO1m+96Y8aPgxXcvP91/EJRbLAKC5KAH2ywEQmQ4feBwSyMBlU0ghvOYnb22oiCIFjnYJSEwpUSbpzeDGa7tyMA/YLjdlVkcLR7H0Txa/WGMeR965nYzvv3jP/7zwL8vQE+NEWyAQAwBHRlYTPdkGD5vN9uHUMAvjTJuisa+xSuAESQVMZSfIXAuMsTc8OXdzQ/eaPL48tP9NxrXgSAa1Dq1WSMZQq7YjSRPv7i/adMsEKTTYOeafUxXflcAu3WG0HQq9xj/d5qmfTBm+HUpTUp94FL53/528/O8zjqxDoKU8sgFP+fSyRCC3k+ztDoEBLngwNZU/TmSIUyQb7/3Zr9UOgQE0UTZhdj0QoaQO/779z+/2WyHn3N1CAhyIcHOTavS77uFtMvUDKXdUEqogyClPVP5eXZfEsjAA11CqIMgPM5nK+FuxTBmfD2O5vrSZpPOBp4xpoRQB0HO6UHn3T4ZlrZNKKrbbGpVUbeqJrQVPleogyBVXRR+OMjQBvQSQh0Eqewr2Y5VVSWmMw97cR7cm6R66jMyKiHUQZCCAQEyFASz0KNyhToIonREr2SY7ccy42PJ461KV0TNcoU6CCLwSqVNevTmVadJXCeg3b4hgLxYkVyhDoJ4ruiVDKGIPE1PTkqptm8Ui37Bg3KFetcEARniERbofX2D1RMkV6h3QxCQQdDdekVCva//FO05i/Ta6C1yhPqzJEilTXqr1wz6EFper/EPHp2W1J2zKF3X2PNyhPrFE6QSGfb3L2GdgdMhz12oXxRBQIZjP/nbu5v3LaZYOYLQTJz2vHerUSRHqK+WICDDcvgQOQZj6GKCaZp4s93cubcOlgw8gVA3Lz/dZ8eR3aVcox05Qj27YbnOsMDQc2gLd+Hzz+Y5bsf48u6GLiSYruPc/00bEreb8Uft/U9Lfqwl1EMdYE3BrxXqTQkyP8swvqbD+7b3c3pFDee60QyCHr3YvbTkiFDv6ztoNOZDLN3jFhyPz6sn+LVCvRpBIgd7gg4UOP7QW+5u0xs+jxew1UHDdmZGZhQ+s1j6xeuQeWAfRwfqBMO3HYbaUFPwa1fUixEkohkO5xFid6QG0oZpWrVnMvhBlNCJuKbZ6RdPkJ0WKpAeVxP8WqGuIkiEDHeUNpF3qHe/2l49SETXPr36CDLEx4Yv726ko0foQeqbzpXEFA5082K1dIhWqLMESZxNmnqS2peCqZC/cCMnbZFc+3/S2s326htJZ+UaalOlPKjr6RCNUA8SJNcZtWdW8hxw2dZK37CjR8WtOEmA19Uh8zt7Je86IUjubBLSpKR4UBd2iPKdN+XLjh7yWSV19TSGOx1TceJFI9RnBEkkBwS0JgwK2wiIMo0etlwBIV2iBWe5SEIj1A8EYcgBMgTCwqYl0smIEpG19IwloljtIVnPqFS/wxrVubWpRqgfCBKeZh1ua25jKOkQP224Gq8+pIrSWH3iaUk9YZmK0Zwo8w9ZZs6CSauy6lOSqUJ9Ikh49FiP00Oe4WZYcvcHubN3xozRPF8i9qTRVaoc1d/vIATrGdmv51bVs1+Q+QBfh3C+2xHE+5YCZ5RZx2xzgVZiZ2386cz07+fNmlFtgSsbLOcBjdYzVo1FQIdE6zsRxE+vLq0X8IMoVn93C0xJwVprgYsjSGikWLKRbDx0bGdC+sXXF4/84amDdVIHxbWx5O+pOiRIkHM5WwoElyq4i2KJC53SKpyUOxdm+87NbDfjB24nb0SoCz+QOf+sWQSsx8326m1JDah2jGd4UQShVGncjI+cY31weLE53JYcHWTOaa/ZQvP6ozG3sZ21+87l2h4DkE7CKGbBVjuKpAj1oAYxpr6zPcAfOcfaIBXoD1k8Fy51Dt0W6SiKbnknqBQEoVFN/X3ywu6ZPS5FqO9TrPkt2C2cvZAmsY5dK0FaHz0NfOo4FFPFtrxrCNIijjREShHqE0FSDDQV8m0EYnHRscLAKFFNesZhTp9SEU6ktuoxFcE6Ce7N9upWqwsEPgtivsYJnxQdMhEkxaBE5HEiez6TMj9zvXBupES12O0PfL3rp6bU0IxOYmojbT1JBSxj5F7dtG9KvDcniBLoR5qlGbbD9f6yglT/+uXZWZvQCziCtEop8tYzdCRW+s3CuDrBLhXqx71YhT68zkWuZgSwgZfXc+bfcSUIzGa95b4XpLMh04c7pX/aHQZM2/cdjnmzXA8dMaXtSi0nFeruXiy6RuYAdq3eUHOeweb2/PTuBBObKqWCactLcn9tAObU6Wl4+kHy7cIcPRDrnChWaO8bo9GmLCB1Sl+LC2cn1d0OQfK/58ZVyv192gkrcKwlKjfE+4ROWWH262136Q5muHZ3oEoI0kqoB+vM4JlDXmbkn1IowQi/mgVEqQ45EESzVz6FEEtl7Xn0pUM/NuC4/J/KbbabaYinRUL699VP92+5OvJbT+apAVePFmtIsTYt4ZkzeuwnBiLn4XcY7YPuZ+YAV7M0NIZTMkGkBlzAaX6PpF3OYR/xNoeoMEzdeuKPTJwOqZWapuAawDMrKNnR27kXiyu7b8cqRLtEqM9PFDYS6kvO9h1r91QJhu6TR1KPSQeZvr74ek0jS8bWk1lwCdYDsoIxhQhcWYtn7kElLuj90YkfZanm5xftEqEeJci5ekOrAeyeIs3MFxc8Kb+fbn6Mj2Y5uX5KvVqV5QLevzFFotXsImzsrrTa7ZMI9RlBNIfaazfCnUHandkwpC+SpjZz6+gLb46w5xLque1csudmD0MdApeKOu86W7olkRUzgpxLqGscK50F0zzbszmZnuR61DWkD9QGOwGh3V5Cz+DSq98FeTDAE/1zltmtZIJIDAoEXLFHcD254kWiNRSudzxXauq312o3qg/dZUxahA4+pRCG03/c4bTt5omb1bLVFu/oVvh10YQT6qf3Yp1BqFPApQpJQc8mxfEu9bMBlyLUl0Y6SxjJWRAuveJubBTqkQNJ6JxKS12y7+y+W7oRlCVI7d7QCzZxsHI9m5QdGr0gcToXONL65ZTjRlhubUSCsWRCQtGZ3eXsPM7BzLc9IUhrob7Qy7FEYZx/SJXopr74BkfddCOnQzTEK+lYehbX+3N15Ox39ZXhx6WlgbZn30pfAs8TgrQU6oKeJUgUJsWZiUaut+dGSH9h0a7OcwSRBk4JJ4aewbWbbGK9v8A37mtZkZ0o2v0msR1mDo726HdIn50QpKVQ51IA22gK4vFqvLUb3aIb5wJfO2KC+bCwR23nFhaPGydP9q7NfMQRL8ehElsBQaILmlLfOHVhT4NmkoReVYUosWuvgre7n4IjG0YljrNlEnuog4ijL6rGnKeZk9+J1thWbbdlOyzWLtRz6ifRHsu+jsdKZFuRMHzKx2KgvYfOI0iQFhfJyfLbE8l02BRnFw3H0Vw7wR2ckxcEi9A5tBHSPFCaJeihz3ppAZfzL41wknYJwIqmXBkkqbKNJ4SVnWRZGEHqb33XgLSUM9vUyOaQklRJ4OSlIgcncTqEE8EZdWBNOYIsaSSuTeyLjwXYlIuv4/xttfCMyYogQVoK9X3l2MUkfkFqu99+Mqq+wJTgeGN7Fz6YyqcD0nryadJp3aQjLflCfvQ5joGUJDU1XXjU3NU78oWp+Ya8Wuwlh0tGk9DowQeoNJxE5U4+Rso5t6ZTuRpz2Pj+TEitpjQ2UUNGU649MelEq/vt91kTa8YfvWhJVgQJQgYthLrv5CWiLI0eXBBwQRT5XXSpg6DHrZIzS9rFaTx/IVOKpWsnJYmko2A6yeobGpfW/xYJ0kKoLznamw5cDDKuB5cEki2Tsv3C2kh63XOsqEvq5Y7ICTieBCpHEgk5XD+FpoJrjx70/qWt75ERpL5QjwWw7VFi36wT9OBijsRmddy1EXqge5SX63lbONdvpACXQ6cjKHt4/NIkyRJJUskx73hIU056svrocUzz57KC2rtIkJZCXRzFXkFBTzlLlYan4WNkvUN6cnBWjiPIOVbUuRHBBm4KOfh9W+U7VPJvys5jbRypCNJyRT2nYZ5Win7+i5vZcXv7WPC45aTBmNPGVFuuTkRayVWqzntFWsp5r6h8artqlg+NgtERZC/UvZsszjdtuQROyicU2HzZ2aYSH52OOAh64ebBIhnV9umLKOZS0kQiScvt6qIGCAqFOk+WIA7Q0xQnrVpLrtIR1IctQoGXerjHF3vbzfa96ywuJfNz5th5CosD98zWt76HO7Y53JQu0f+RrWWsr1NkgyexQOwbnYsahN5BhpMo/XR/Z+9bor1Qie9XFXemKfefETYP9KDRmM/+R3diK+du75cazJFUZTYqcBv7UnpgFViOkaCNhy0w3CKtVmTntqGVfWxqObrVJFRBOwS1mrbk5vHdGZVYSuEHJ5d+uM+NpU/S9xOWLQkiSPlm29xjJGnl6xaEmKaPp0s/hmv+CqjjqBkdQdyK216ylbNTCBIXpfMUgROwlH7QCLW7pXH5888pQr3lTBbXvlDKFyJJKz/XIEcaGU5qMJtWFhFk3iu1yUkZgkinZA+7by0Mkh5W5rQjDnxQtsFspz/i51SWNNGcJO3qK8N6uVQmGfwHn6y5iAjipiWt8tIUgjB59+xA1HbzlPzJgJB7XBwEpGuy2DXpxpNLN+I95OnExtNHzQd2cgNdYl+YDPaV0c/UsQRpfUbd1jqFILue8+aXpc1uaQeiJK6ayhy3vb+7ec/MCDUjCFVsR9jDdau0AdDZBHgZo0MlMkx+oxlZY4ZfJTfpsAQJ9Y61xRs3ExMaxQQ9pzjypQWlN8+32i6xVG+XMO7RZWk7a5c7zibtbuaXn+5ka5ZEhtDTWIKcY0VdQxBB7s2iyRQI7vAVvrfpCJLb0Jr2ayaDiiDh9KXuMK0hiEAHpPp9cdvKYSOlsLfj9jGlVuxSyl8aGdQEab31nSNIKGUR2MTiKnr+Izcfrp2SroEwNckwjubRXp3a+hNubIq1G0HK79SMOVUQ7MGUJUGHTKPD0lZ6T+RGPkwpCs3me7FEtcosRDHh6IXpxCBt7UnZ4xWoguigWmbVk8xFBGkt1AsTJEmoCd6dBPAlL7jFRf9A9wg4f8fPsAk/U7E6MqhTrNZCXaAnwiMI7R0bzXe5wzG361fIkFV91VVSZzeVNGZ8HbrUeyoT/ljoyblzKkvvPRJGNrUqqWurMqIRpLVQ1xKkFGjcJj7Be1Y/a5WgGQ4j8K7d0VtjVt9uge/m46LUoKVQ53vwurNohAlfhxPk2HugpFiXLEdEsEeGp/AWzrwJ6nARKZKgHdEiCSNIO6HOB2d9gghGkcM08FoOCM3JML4u+Km6Lsig1iBk2FKo84tv9QkSGEWiM1+5PVWqfe7Uc+R93ZIhiyAthTpHkFYLb7ZHbj337jsKZEjtPsqVF6dYLYU6d7lCK4KUg1n+pATxLH/oriRGhlTEdseS5X+thHpvBIlMncqdMy8JMmiR8+ySCNJqRb03gpBPjiNH8uXbIEMhMmRpkJZCndsy8hxXp61zGP0FMlQkQzZBWgn1SyGIXSmmdQYCd9gOh4NJ0+UAZrQ3shywp/Pu9B+xK42clItmzkQHexrHTTevS0qxWgp1m3bQv34AXm2vHlpdSWnr4X270Dulp46Xx9GYW7Kmq5XUT4FhNQSSCdJKqFdrMfPgmlOqtIOYXi856nmu9uO9cwSSCdJKqLdwVCUy7NMqkKGFD2u/I5kgLVfUSzYeZCiJZj/PSiZIK6Ge4wKQIQc92LoIJBMkJNTPeaS0FhnsMU+aifLvAkYI9YOAiiC+UF/68lBpGFuQAbNJpb122c9TEcQT6lUOyYAMlx1Yz6X2KoLMdUj+1vNKG/Sw6vxcovSM7VARhOp7TLPSCAIynNHbeHUyAmqCHKd7jwTxP4cGMiT7AwYrQ0BNkOMoMny2R04Fly2kNh9pUipiKF8UgSyCWCHtzvxwGw0jtQcZiroWDyuBQBZBQhXgjsvubZIucyvRUDwDCGgQKE6QwEo7yKDxDGxWgUBxglCrSIvQv+e+7GAVCKMSF41AFYJcNCKoPBBwEABBEA5AIIIACILwAAIgCGIACOgQwAiiww1WnSAAgnTiaDRThwAIosMNVp0gAIJ04mg0U4cACKLDDVadIACCdOJoNFOHAAiiww1WnSAAgnTiaDRThwAIosMNVp0gAIJ04mg0U4cACKLDDVadIACCdOJoNFOHAAiiww1WnSAAgnTiaDRThwAIosMNVp0gAIJ04mg0U4cACKLDDVadIACCdOJoNFOHAAiiww1WnSAAgnTiaDRThwAIosMNVp0gAIJ04mg0U4cACKLDDVadIACCdOJoNFOHAAiiww1WnSAAgnTiaDRThwAIosMNVp0gAIJ04mg0U4cACKLDDVadIACCdOJoNFOHAAiiww1WnSAAgnTiaDRThwAIosMNVp0gAIJ04mg0U4cACKLDDVadIACCdOJoNFOHAAiiww1WnSAAgnTiaDRTh8D/AcTIYddC6iCLAAAAAElFTkSuQmCC;" vertex="1" parent="1">
          <mxGeometry x="950" y="795.5" width="49" height="49" as="geometry" />
        </mxCell>
        <mxCell id="vRT_TVWz7FN-6WbVA6KG-81" value="晋级六个课题" style="rounded=0;whiteSpace=wrap;html=1;" vertex="1" parent="1">
          <mxGeometry x="310" y="990" width="120" height="60" as="geometry" />
        </mxCell>
        <mxCell id="vRT_TVWz7FN-6WbVA6KG-85" value="" style="rounded=0;whiteSpace=wrap;html=1;dashed=1;" vertex="1" parent="1">
          <mxGeometry x="120" y="1190" width="1151" height="970" as="geometry" />
        </mxCell>
        <mxCell id="vRT_TVWz7FN-6WbVA6KG-86" value="决赛" style="text;strokeColor=none;fillColor=none;html=1;fontSize=24;fontStyle=1;verticalAlign=middle;align=center;" vertex="1" parent="1">
          <mxGeometry x="140" y="1210" width="200" height="40" as="geometry" />
        </mxCell>
        <mxCell id="vRT_TVWz7FN-6WbVA6KG-88" value="" style="shape=flexArrow;endArrow=classic;html=1;rounded=0;strokeColor=#e71304;fillColor=#fa0505;width=31.764705882352942;endSize=8.870588235294118;entryX=0.512;entryY=-0.003;entryDx=0;entryDy=0;entryPerimeter=0;exitX=0.467;exitY=1.002;exitDx=0;exitDy=0;exitPerimeter=0;" edge="1" parent="1" source="vRT_TVWz7FN-6WbVA6KG-22" target="vRT_TVWz7FN-6WbVA6KG-85">
          <mxGeometry width="50" height="50" relative="1" as="geometry">
            <mxPoint x="575.5" y="1150" as="sourcePoint" />
            <mxPoint x="576" y="1160" as="targetPoint" />
          </mxGeometry>
        </mxCell>
        <mxCell id="vRT_TVWz7FN-6WbVA6KG-91" value="" style="shape=image;verticalLabelPosition=bottom;labelBackgroundColor=default;verticalAlign=top;aspect=fixed;imageAspect=0;image=data:image/png,iVBORw0KGgoAAAANSUhEUgAAAMgAAADICAYAAACtWK6eAAAAAXNSR0IArs4c6QAAEqZJREFUeF7tnW1S3DgQhi2YPcfCSUIqbBWcInCPEMiSe4Q9RaYqpMKeBPYcgXiRx3I8HnvU3fpqSc2fDYv81d2Pul9JltW79ecvzejnoP31r/m1bdST/vf9+dXDuI38WyxQggXOvt4c6ed4bg6PVNMetY3qfh/iX6n36nR920Ie1sCimraDxvxugNK/r5qXp/X5Tfd3+RELpLSADv7n5vBiFOx/Ggj0f6H3pnQGeQ364UTQA/e1G8M0/Ltt/xvDJTD5sHQd59jb06vmTd9hD0GPAcBmwSCA2C46/buGSMNjYNJ/Vz1QJjPp/yfZCWtZvu37Hr4rbbYCfBTwPgOdagl1+vX2plHNNfUEsY+bZidd4n07/3gX+z7kenYLDGUOs6C33/mmRddx//X174tWqS2hDj0Bh3bdQ7TtpQwkcPDG9j2crm9/NE1zwu/OwHf0oDPISaMa/SDZ/mhI/mif30oJxseFBcChM8hdEYCYdPj97MMxnxCp905yK9sXPdU2n1RXJ6rDxxLcqYn/fvbhsoRnyfUZSqhIBtuXBkivrD7dn1/d5BpgOd93SZ2t9oPWtkr/49368yOHITUfwSGi3YcVaecoQXeMn3wApLQHE9FOC3CXo0qLIW2LVfty3GWQEh9OQyKi3SXk4ceGWI0Bv3q4lkUD0o9siWgPFz/dmYsS5RNb3Z9dKaNBvK/HCuwX+OnbRkQ73FqoliXDoQ0xAFLMuPWSewUSVOBDGpc2YjV9ZlOidxkk9+UmNofKyJbNQvi/l6hbJ1Z4uD+7ersR6QUsN7G5WEa2bBaC/70COLplJnrSuRpAetEuI1twDmZbFl+O90+9BUjp9eTY07IchU5IDZXGYJ1et3YZpCZAOgOIaEdTUhUc/TIT/Z5RB0inQ4DvpqMty/AAEe04p+gO9Kda/ShlORLk6fUyky1ASlqPBTGAiHaIlYbqQr9Ql/OLT7CH3a7F3+qX8MYZJPe3v9BGkOUodpPVMGI1ZwW9zES/gFc1IP3IlixHWeCkVji0OXYAKXXBmb2PFNE+Z6NahnOX4kMvM9F/+51BMtvdBBT4iEZGlCEOKbZpbSNWU0eOS28BpLeOjGxtDFHdkP98N9ctM9nKIKWvx4J09zKyVea7QRDfbw9g/d7bYJxBst/+B2uIufY1j2zVLMoFEAQ9NS5HqV2Ub4XHaKXFkEGk9pwQVNFylNpF+U7fKYDY00ktol06xt1YGI9oDhlEN6tpPZYdkc3mxaVvaSq6QwCBsLDYpmTRLnAsuL1tunVYW8O8kkH2cjSMizvRxuhgEeXLzjDLTHYAqW1FLypeCxLtIsr3e94sM5nLINWt6MVAUsJyFIHD7nEBxG6j2RYliHapEuzOXwSk6hW9drt1LXIW7SLK7U6e+nd7mLfyFb12821a5DjTLqIc5t2pbwUQmN12W2Uk2kV3wJ1sA0QWLMJtmcXuKAIHxqG71cE0gwggCHtyX44iy0gQzuyb7s0gYlCSQdkuRxFRjvfndM+0rQwigBAMujmE3Uy7wEHz5XSuawsQfUpZsEgzLKfdGmXEiujD0Y6K5gw7gMhEEt24HCARUe7gv80Y/rBQUf+6m0FkLoRs4dSiXUpksuvM/NbO7v87gHRllkBCtnTK5SiiO8huW1whMQuIvkyNGxbTzbt9ZIrlKAKHk/cWB1kWARFInAwedTmKZHwHX1lWROwFxEDy3BxeNKq5driNOg+NsBxFRLlDaE0E+dyZrICYg6SXojki5DskAgfNJxidCAZkyCbq8JF2W3UeFWpkSzQiMZ6QWR0FiOgSmlMwPRb0CiLKoZbatKN2VGhARJfgHGNa+xzZEjjQPiAvBSIBIpCgHWR6MeeP9YgWRNoeWVJNz04GxJxIdoWP5zAR5XBbU0sq74CILoE7zaUWFjjgdvap+ZwziLntflTlWjXtBfxR6myJdaCssULFCVlvzF3FGyCiS1BORO2OIqIcaFtHvREcEHMBEZIwh0J2RxGNB7PldJk68ChrM68ZZHw1cazV9psGll6vK69kqc+iMX2J8aULBANkKLlk5t1OCgQSdfjl9dXeE/vJqmrhVW9EK7HGF5IlEfaAhfSCvVAXSHpzQspTu+XtLYJmkPEIl5QJ+50BGdkSSDY2DLkAdOqlKIDICJe9p9rIEbXzyuf0yJohgWRamKXhraIBYm5JRrismcS6HKVGSCAZFh728JbRATHZ5Kda/VBNewS/1YpaAsbzK4MkuBhPMoq1L6RFvO8HHlJnVwEJoLMI2XUmySAi3u0uhZYUpUKSQm8kGea1h4JsM7RkI4hoHwZACpongXYOkNhybZM0g4xvXkqueVdCx/sLyiTJ9AbbDDIuuUS8z7gJWIdnDwnwOV2zAuZ4NhlEdMmy2zD1eLaZGLAFDyawfbVlB4jMlyyWWuDvkOQECQZ+X0GPOQ9bQPRDyFt0266EivaM5ppY6Q32GmTuBnPqDTE9k0NbcFCxth1DvZElIMMwprwT8dt/iOBiCQlTvZEtIKJL6CNb7MqtjODQtmOtQeaIFl2ysQpW3LLIJJnBkSUg7HpEBzHheih2xjkVJFiYXe3i8/jsMoh5eHlX+3cm+X724RgaFLEhwYy8QZ8hZrtsARFdMtbsyvoOyTioYkECXSYTM+Cx18oeEP3Aokvsu6NMAyM4JIiRNmzQxmxfBCCiSzYhA3mHJHQmyVlvzIFXDCAjSKrd/pQSnD4zCXbQIGYmoF6rKEAMJDXvoEIRxZ4gAc/wU4M1xXHFASLivbMAOlhdIClBjC/BVywgvXi/qfbrvASRTIEEq3tSZAGXaxYNSO3inRK8UEgoesclUFMdWzwgNUNCDWIbJBSdkyrAXa9bBSA1i3fqyNISJCXrjeKHeSG9RY07O1J7/B1ICLoG4hPObarJIKEnyDg7Wd8btecfNoLYwPHA/Tl931+VgFSrSyrMAK7AVAtIjbqEKtpdgyzn46sGpMZJRapozznIXe5dAOmtZxvadDEyt2Opop3bc8S4HwFkZOXKIEG9QxIjGDleQwCZeKWqNxVFtFuZFEAWTFTDfImIdisf+e1qYn8kfy1qeFNRRPv+eJEMYuGpBl0ion05CAQQQMLpISn6TUXqTDvAfFk3EUCA7qtCvIto34kGAQQISC2TipR3SJAmzKq5ANK766+vf1+8lhlH9+dXNzYPlqxLZGRr2/sCyHRfLWCZUTokf7TPb9fnN0+2zqL0v1cPSL+c+9E4uu9B/4FmklJ3UJGRrU1EVA/I6fr2x+suICfjnhADiT6u1ElFGdmqHJA5OCiZRB9TbMkFLDlLLbWqzSDT0mrOwdhMUiIktYv2agHpRq2U+mLr+SiQFKdLKs4iAoiNkN9fcwIJ9xLnS2rWIqwA6TRBpM0BsMKaUmpAsxSA0aRNYgGiF4eumpcnTsPLbAAZBHOk79i9W3/+opr2AhN5FEgK0SXovX4xdjVtdYfySx1cc5qDYQHI1mhSPEAeVdMeYR1ZIySx5kRMxuW0BD85IDtDrZEAOV3ftlg4JkPAl5h9orJf7BjBL+OSlAskSQGZnYeI7IiYkOQ8qRhjEeNUs3GAJBkgS5N0MRyxb4IQAwyl3OohOWlUo2fwc/oJrkPmBjVSQ5IEkH0BGhoQ3yNLVEhyE+8xdMiSb1JCEh0QW+8dGpB3688kcb6vq3eBJKdJxdDDvfs6r1SQRAXEBkcXhAE1CHbuA1P/UB2Yk3indgRQO9qyO9XG0OvPtYsGCAiOgICEhGM8ukUdw49xfy6BMn7G72cfjn2ca3oOGyCb8FBPVBtT7jkKIGA4AgFCmRSkGNPVgbnoklClFgQQVxtj/RocEOzeUj41yPBti8n7HlgjYdu79HIZQeK9J4cCEhOS4IBgg3Rfnath0ytw96XYvqbXM+R6KPUaG9y+2rtCkoN4NyudV83LHWT9lPbNvnaoSiNQtTH1f3BA9AUpkBy0vz59O/94Z254nImMY/T3wPXf9ZIRveHC69zCm+nbgb4CnnIeF0j09XLSJdoXqm31iufZr1AN/ltYOo8ugwMO5ox9HQUQKiS9wW+wZRolmEMd4wGSrCYVu86raZ/6Tuy/wa7jbD6BhCscm8434g+2vtZG7nom5KrbiI8EupQrJFi7gW4qdaMeEs5wRAfEZJKfavWDspI2tU9dru8JkqK3P7XaN1JZlaTEGl+0yB7R6t2ugdN6ppwmFWHmQLRKAEeSDGJMUhskPmehcxHviPDf3zQRHEkBqazccsocc9FTTQeTEI7kgNQASahZ5xpsF3JdHjS7RR3FWrqpknrDfuSte9TpXA7UKZh22nYvzcHJL3XwxswHFTEAkjhzGB+wACTn3nA8aYl5BRcDAaWtAadV6j2nyVPQszCBg0WJlePoloECssE1KCACNxplGT1MjN6oIvDtbZ+eERzsAMkik2S8yyD3YWKfC1V9Qc2mxOKeSXwO0/pyHvU8HIeJOcLBMoMYp3MT7qv25RiyYpUatLGP4wQJVzhYA2LKrWd1OHzcJnYQDddjVhf7sgN6ebmvC4/OwxkO9oDoG0QvZvPsxJDzGJ5vFX06yCcg0CfFHJCBnmOpQYyNOSxzL620msZvyg7IdQEnhkVqW7aAcNAgJWePsdZLWcbG2G+LCgfrEkvqYxe34o5NbWvOHRHLDJLaYSa87s+uWNoHF/721inLrNFAyCeOE6/sAoDL8CP31G8Pe3gLDjbnOs/EChAOotyEFee0Dw99WEsuduco2tkAknzIcRJLNQHCyfbcMjcbQLjojhozCCdAtP05dU4sAOEGRw+J97cAYQVP/FZcSqytJ2cyiZgcEA4CcS4kuYrGEPhw7KC42D8pICx7rlEEcquHQ8DBYoh34cE4iPZkgHCrexd8VHyZxd0PqTupZIBwTOsTSIqHg8tyE1tmTCnakwAicNhCIv7fuWeS16GtJDPt0QGJKcrNDiPY97BrWWIyxRDzfY5+OLbbqDrGphCpRHtUQCKL8q5Eonx6wewqH78fT3dFop0uV83LU6xvmaQQ7dEAiZrCJ+mY6Hz9rYubdCEb78pE+1yOtzmKVRnEFu3RAImmOxZejyUGQfGQEO2yBcdY7MfYuT+maI8CSAw4IDUqMRiygkQ/Iyb3PKvDL1ANAbZxc3gR+vN3sSAJDkgk3QEeksVCggm2rm3iDR5ClToQOMa2CnUfsZejBAUkChyE4b9gkCSGQwdPiM3hsHCYIObqf0ynFxSQd+vPj9ghVujNU502mRwDlxfW+2IAx9azeSpzfNg5pC5xvT+bX4MBElJ3+Bru85ZJGMHhExJfwRciq40D21c8zMESBJDA9SdYb9h6h6EkQQjVnXMyhMMHJL7giKVLQg3/egckaN1J0BtBIWEMhwskIeCIpEu8dp76nr0CEmoyMKTDyJokAzgokMSydTBd4rkT9QpICN0Rsr6cZhewJskIDgwkMeDA3A8k+8/qhra9/Hb+8Y56/Pg4b4AEguPu+9mHSx8PCj2HFZIM4YAEZUw4QusSn52qF0CCiHLPqRIKyF7hnjEc+yBJBUdIXeJLtDsD4luUp3bWoiYpAI45SDjZ27cu8bEcxQmQAKLc+ygEJnPMaZKfanXdL39/cDkXt2OHuYmmeeDy8dEg8yWOlYgTID51hw/auQWh3A/NAj5LdtcMSQbEJxzcvzJEc7Mc5WIBn6W7i2gnAeKLcFe6XRwgx/K3gM9vxFBFOxoQj2Sz0hv8w6XOO/SpSyhl/A4g/Q3pl25OWqX+PGh//avp00LOmyh3FE51hkrdT+2ratG7o6yal7vuPXr9+o5SfxrLzg3GbAHiMTsse7Og4dK6Qzb+0/ssuZbufqpXBkBCb0HpIpTiu0KuyNUCPSTXr9sNdRkgxM84VjtAQsPxWq6J3gjhyUrP6VOX2DKJCg6H6I1Kwzj8Y2M3usPeUTfK6nM+Y3wDMoSLdYe0p1ggtC5RgYS5lFQUb8sxJAuEKrn0sLCyLu9G3jJlrBl5CWkuFpi1gLeh4P7sq/bluBPpvmo5WTIikZvaAr7m6kxH3wHiLYvIHEfq+JDrb0Zl3beb6mN5mAfxokVkxEoClIEFTte3rdNtjOJ4OpN+47inqohzJ8/Iwa4W8CAXtmJ4CxAPpZYA4uphOd7JAi6AzE1NzC9WpG+kJoA4uVcOdrWACyBzG4/PLnenTr7IEK+re+V4VwuQtfTCANPi+yCkcktGsVz9K8d7sABmFMu24mPvC1PIGUoprzw4V07hbgFEmWWNWdAbhXqGslXq/dKnDGQpu7tT5Qx+LWCdVQdOSYAAGSYTZ745YUtRfh9bziYWgFlgT/XzsGpfLtfnN/rz1dYfMCDmTPrCL82Bfh33/asoP9LLS7jsq2R9WmlQlQUMJF3107b/6FdtoWAYQ/0Pn9H7TIEj/ZIAAAAASUVORK5CYII=;" vertex="1" parent="1">
          <mxGeometry x="950" y="721" width="30" height="30" as="geometry" />
        </mxCell>
        <mxCell id="vRT_TVWz7FN-6WbVA6KG-92" value="进入复活池" style="rounded=1;whiteSpace=wrap;html=1;strokeColor=none;" vertex="1" parent="1">
          <mxGeometry x="931" y="750.75" width="68" height="30" as="geometry" />
        </mxCell>
        <mxCell id="vRT_TVWz7FN-6WbVA6KG-110" value="" style="edgeStyle=orthogonalEdgeStyle;rounded=0;orthogonalLoop=1;jettySize=auto;html=1;" edge="1" parent="1" source="vRT_TVWz7FN-6WbVA6KG-93" target="vRT_TVWz7FN-6WbVA6KG-109">
          <mxGeometry relative="1" as="geometry" />
        </mxCell>
        <mxCell id="vRT_TVWz7FN-6WbVA6KG-93" value="" style="rounded=1;whiteSpace=wrap;html=1;" vertex="1" parent="1">
          <mxGeometry x="1080" y="594.5" width="360" height="342.5" as="geometry" />
        </mxCell>
        <mxCell id="vRT_TVWz7FN-6WbVA6KG-108" value="" style="edgeStyle=orthogonalEdgeStyle;rounded=0;orthogonalLoop=1;jettySize=auto;html=1;entryX=0;entryY=0.5;entryDx=0;entryDy=0;" edge="1" parent="1" source="vRT_TVWz7FN-6WbVA6KG-96" target="vRT_TVWz7FN-6WbVA6KG-106">
          <mxGeometry relative="1" as="geometry" />
        </mxCell>
        <mxCell id="vRT_TVWz7FN-6WbVA6KG-96" value="前六名" style="rounded=0;whiteSpace=wrap;html=1;" vertex="1" parent="1">
          <mxGeometry x="1130" y="689" width="170" height="60" as="geometry" />
        </mxCell>
        <mxCell id="vRT_TVWz7FN-6WbVA6KG-97" value="" style="edgeStyle=orthogonalEdgeStyle;rounded=0;orthogonalLoop=1;jettySize=auto;html=1;" edge="1" parent="1" source="vRT_TVWz7FN-6WbVA6KG-98">
          <mxGeometry relative="1" as="geometry">
            <mxPoint x="1357" y="803" as="targetPoint" />
          </mxGeometry>
        </mxCell>
        <mxCell id="vRT_TVWz7FN-6WbVA6KG-98" value="后六名" style="rounded=0;whiteSpace=wrap;html=1;" vertex="1" parent="1">
          <mxGeometry x="1130" y="773" width="170" height="60" as="geometry" />
        </mxCell>
        <mxCell id="vRT_TVWz7FN-6WbVA6KG-100" value="" style="shape=image;verticalLabelPosition=bottom;labelBackgroundColor=default;verticalAlign=top;aspect=fixed;imageAspect=0;image=data:image/png,iVBORw0KGgoAAAANSUhEUgAAAMgAAADICAYAAACtWK6eAAAAAXNSR0IArs4c6QAAFPxJREFUeF7tXW2OHLcRZc/qEoEUaH2SSEDWyBESIYClk8h7Eq+BQM4RgmwAr07iNWIhl9BOx9UznGFz2Kxi8WN6lm//CPawuslX9ch6/OrB4A8IAIFFBAZgAwSAwDICIAiiAwhEEABBEB5AAARBDAABHQIYQXS4waoTBECQThyNZuoQAEF0uMGqEwRAkE4cjWbqEABBdLjBqhMEQJBOHI1m6hAAQXS4waoTBECQThyNZuoQAEF0uMGqEwRAkE4cjWbqEABBdLjBqhMEQJBOHI1m6hAAQXS4waoTBECQThyNZuoQAEF0uMGqEwRAkE4cjWbqEABBdLjBqhMEQJBOHI1m6hAAQXS4waoTBECQThyNZuoQAEF0uMGqEwRAkE4cjWbqEABBdLjBqhMEQJBOHI1m6hAAQXS4waoTBECQThyNZuoQAEF0uMGqEwRAkE4cjWbqEABBdLjBqhMEQJBOHI1m6hAAQXS4waoTBECQThyNZuoQAEF0uMGqEwRAkE4cjWbqEABBdLjBqhMEQJBOHI1m6hAAQXS4waoTBECQThyNZuoQAEF0uMFqJQh8efft9+M4/mkYzCNVaTTm86tP93elqgeClEISz6mGwP/++pdrevgf/vmviQT0R//vaXj6YRjMm8CLH40Zfnz56d/f51YKBMlFEPZFEaDA//ri6/Vmu3mzHxnejKN5ePXT/VtLjO1m+96Y8aPgxXcvP91/EJRbLAKC5KAH2ywEQmQ4feBwSyMBlU0ghvOYnb22oiCIFjnYJSEwpUSbpzeDGa7tyMA/YLjdlVkcLR7H0Txa/WGMeR965nYzvv3jP/7zwL8vQE+NEWyAQAwBHRlYTPdkGD5vN9uHUMAvjTJuisa+xSuAESQVMZSfIXAuMsTc8OXdzQ/eaPL48tP9NxrXgSAa1Dq1WSMZQq7YjSRPv7i/adMsEKTTYOeafUxXflcAu3WG0HQq9xj/d5qmfTBm+HUpTUp94FL53/528/O8zjqxDoKU8sgFP+fSyRCC3k+ztDoEBLngwNZU/TmSIUyQb7/3Zr9UOgQE0UTZhdj0QoaQO/779z+/2WyHn3N1CAhyIcHOTavS77uFtMvUDKXdUEqogyClPVP5eXZfEsjAA11CqIMgPM5nK+FuxTBmfD2O5vrSZpPOBp4xpoRQB0HO6UHn3T4ZlrZNKKrbbGpVUbeqJrQVPleogyBVXRR+OMjQBvQSQh0Eqewr2Y5VVSWmMw97cR7cm6R66jMyKiHUQZCCAQEyFASz0KNyhToIonREr2SY7ccy42PJ461KV0TNcoU6CCLwSqVNevTmVadJXCeg3b4hgLxYkVyhDoJ4ruiVDKGIPE1PTkqptm8Ui37Bg3KFetcEARniERbofX2D1RMkV6h3QxCQQdDdekVCva//FO05i/Ta6C1yhPqzJEilTXqr1wz6EFper/EPHp2W1J2zKF3X2PNyhPrFE6QSGfb3L2GdgdMhz12oXxRBQIZjP/nbu5v3LaZYOYLQTJz2vHerUSRHqK+WICDDcvgQOQZj6GKCaZp4s93cubcOlgw8gVA3Lz/dZ8eR3aVcox05Qj27YbnOsMDQc2gLd+Hzz+Y5bsf48u6GLiSYruPc/00bEreb8Uft/U9Lfqwl1EMdYE3BrxXqTQkyP8swvqbD+7b3c3pFDee60QyCHr3YvbTkiFDv6ztoNOZDLN3jFhyPz6sn+LVCvRpBIgd7gg4UOP7QW+5u0xs+jxew1UHDdmZGZhQ+s1j6xeuQeWAfRwfqBMO3HYbaUFPwa1fUixEkohkO5xFid6QG0oZpWrVnMvhBlNCJuKbZ6RdPkJ0WKpAeVxP8WqGuIkiEDHeUNpF3qHe/2l49SETXPr36CDLEx4Yv726ko0foQeqbzpXEFA5082K1dIhWqLMESZxNmnqS2peCqZC/cCMnbZFc+3/S2s326htJZ+UaalOlPKjr6RCNUA8SJNcZtWdW8hxw2dZK37CjR8WtOEmA19Uh8zt7Je86IUjubBLSpKR4UBd2iPKdN+XLjh7yWSV19TSGOx1TceJFI9RnBEkkBwS0JgwK2wiIMo0etlwBIV2iBWe5SEIj1A8EYcgBMgTCwqYl0smIEpG19IwloljtIVnPqFS/wxrVubWpRqgfCBKeZh1ua25jKOkQP224Gq8+pIrSWH3iaUk9YZmK0Zwo8w9ZZs6CSauy6lOSqUJ9Ikh49FiP00Oe4WZYcvcHubN3xozRPF8i9qTRVaoc1d/vIATrGdmv51bVs1+Q+QBfh3C+2xHE+5YCZ5RZx2xzgVZiZ2386cz07+fNmlFtgSsbLOcBjdYzVo1FQIdE6zsRxE+vLq0X8IMoVn93C0xJwVprgYsjSGikWLKRbDx0bGdC+sXXF4/84amDdVIHxbWx5O+pOiRIkHM5WwoElyq4i2KJC53SKpyUOxdm+87NbDfjB24nb0SoCz+QOf+sWQSsx8326m1JDah2jGd4UQShVGncjI+cY31weLE53JYcHWTOaa/ZQvP6ozG3sZ21+87l2h4DkE7CKGbBVjuKpAj1oAYxpr6zPcAfOcfaIBXoD1k8Fy51Dt0W6SiKbnknqBQEoVFN/X3ywu6ZPS5FqO9TrPkt2C2cvZAmsY5dK0FaHz0NfOo4FFPFtrxrCNIijjREShHqE0FSDDQV8m0EYnHRscLAKFFNesZhTp9SEU6ktuoxFcE6Ce7N9upWqwsEPgtivsYJnxQdMhEkxaBE5HEiez6TMj9zvXBupES12O0PfL3rp6bU0IxOYmojbT1JBSxj5F7dtG9KvDcniBLoR5qlGbbD9f6yglT/+uXZWZvQCziCtEop8tYzdCRW+s3CuDrBLhXqx71YhT68zkWuZgSwgZfXc+bfcSUIzGa95b4XpLMh04c7pX/aHQZM2/cdjnmzXA8dMaXtSi0nFeruXiy6RuYAdq3eUHOeweb2/PTuBBObKqWCactLcn9tAObU6Wl4+kHy7cIcPRDrnChWaO8bo9GmLCB1Sl+LC2cn1d0OQfK/58ZVyv192gkrcKwlKjfE+4ROWWH262136Q5muHZ3oEoI0kqoB+vM4JlDXmbkn1IowQi/mgVEqQ45EESzVz6FEEtl7Xn0pUM/NuC4/J/KbbabaYinRUL699VP92+5OvJbT+apAVePFmtIsTYt4ZkzeuwnBiLn4XcY7YPuZ+YAV7M0NIZTMkGkBlzAaX6PpF3OYR/xNoeoMEzdeuKPTJwOqZWapuAawDMrKNnR27kXiyu7b8cqRLtEqM9PFDYS6kvO9h1r91QJhu6TR1KPSQeZvr74ek0jS8bWk1lwCdYDsoIxhQhcWYtn7kElLuj90YkfZanm5xftEqEeJci5ekOrAeyeIs3MFxc8Kb+fbn6Mj2Y5uX5KvVqV5QLevzFFotXsImzsrrTa7ZMI9RlBNIfaazfCnUHandkwpC+SpjZz6+gLb46w5xLque1csudmD0MdApeKOu86W7olkRUzgpxLqGscK50F0zzbszmZnuR61DWkD9QGOwGh3V5Cz+DSq98FeTDAE/1zltmtZIJIDAoEXLFHcD254kWiNRSudzxXauq312o3qg/dZUxahA4+pRCG03/c4bTt5omb1bLVFu/oVvh10YQT6qf3Yp1BqFPApQpJQc8mxfEu9bMBlyLUl0Y6SxjJWRAuveJubBTqkQNJ6JxKS12y7+y+W7oRlCVI7d7QCzZxsHI9m5QdGr0gcToXONL65ZTjRlhubUSCsWRCQtGZ3eXsPM7BzLc9IUhrob7Qy7FEYZx/SJXopr74BkfddCOnQzTEK+lYehbX+3N15Ox39ZXhx6WlgbZn30pfAs8TgrQU6oKeJUgUJsWZiUaut+dGSH9h0a7OcwSRBk4JJ4aewbWbbGK9v8A37mtZkZ0o2v0msR1mDo726HdIn50QpKVQ51IA22gK4vFqvLUb3aIb5wJfO2KC+bCwR23nFhaPGydP9q7NfMQRL8ehElsBQaILmlLfOHVhT4NmkoReVYUosWuvgre7n4IjG0YljrNlEnuog4ijL6rGnKeZk9+J1thWbbdlOyzWLtRz6ifRHsu+jsdKZFuRMHzKx2KgvYfOI0iQFhfJyfLbE8l02BRnFw3H0Vw7wR2ckxcEi9A5tBHSPFCaJeihz3ppAZfzL41wknYJwIqmXBkkqbKNJ4SVnWRZGEHqb33XgLSUM9vUyOaQklRJ4OSlIgcncTqEE8EZdWBNOYIsaSSuTeyLjwXYlIuv4/xttfCMyYogQVoK9X3l2MUkfkFqu99+Mqq+wJTgeGN7Fz6YyqcD0nryadJp3aQjLflCfvQ5joGUJDU1XXjU3NU78oWp+Ya8Wuwlh0tGk9DowQeoNJxE5U4+Rso5t6ZTuRpz2Pj+TEitpjQ2UUNGU649MelEq/vt91kTa8YfvWhJVgQJQgYthLrv5CWiLI0eXBBwQRT5XXSpg6DHrZIzS9rFaTx/IVOKpWsnJYmko2A6yeobGpfW/xYJ0kKoLznamw5cDDKuB5cEki2Tsv3C2kh63XOsqEvq5Y7ICTieBCpHEgk5XD+FpoJrjx70/qWt75ERpL5QjwWw7VFi36wT9OBijsRmddy1EXqge5SX63lbONdvpACXQ6cjKHt4/NIkyRJJUskx73hIU056svrocUzz57KC2rtIkJZCXRzFXkFBTzlLlYan4WNkvUN6cnBWjiPIOVbUuRHBBm4KOfh9W+U7VPJvys5jbRypCNJyRT2nYZ5Win7+i5vZcXv7WPC45aTBmNPGVFuuTkRayVWqzntFWsp5r6h8artqlg+NgtERZC/UvZsszjdtuQROyicU2HzZ2aYSH52OOAh64ebBIhnV9umLKOZS0kQiScvt6qIGCAqFOk+WIA7Q0xQnrVpLrtIR1IctQoGXerjHF3vbzfa96ywuJfNz5th5CosD98zWt76HO7Y53JQu0f+RrWWsr1NkgyexQOwbnYsahN5BhpMo/XR/Z+9bor1Qie9XFXemKfefETYP9KDRmM/+R3diK+du75cazJFUZTYqcBv7UnpgFViOkaCNhy0w3CKtVmTntqGVfWxqObrVJFRBOwS1mrbk5vHdGZVYSuEHJ5d+uM+NpU/S9xOWLQkiSPlm29xjJGnl6xaEmKaPp0s/hmv+CqjjqBkdQdyK216ylbNTCBIXpfMUgROwlH7QCLW7pXH5888pQr3lTBbXvlDKFyJJKz/XIEcaGU5qMJtWFhFk3iu1yUkZgkinZA+7by0Mkh5W5rQjDnxQtsFspz/i51SWNNGcJO3qK8N6uVQmGfwHn6y5iAjipiWt8tIUgjB59+xA1HbzlPzJgJB7XBwEpGuy2DXpxpNLN+I95OnExtNHzQd2cgNdYl+YDPaV0c/UsQRpfUbd1jqFILue8+aXpc1uaQeiJK6ayhy3vb+7ec/MCDUjCFVsR9jDdau0AdDZBHgZo0MlMkx+oxlZY4ZfJTfpsAQJ9Y61xRs3ExMaxQQ9pzjypQWlN8+32i6xVG+XMO7RZWk7a5c7zibtbuaXn+5ka5ZEhtDTWIKcY0VdQxBB7s2iyRQI7vAVvrfpCJLb0Jr2ayaDiiDh9KXuMK0hiEAHpPp9cdvKYSOlsLfj9jGlVuxSyl8aGdQEab31nSNIKGUR2MTiKnr+Izcfrp2SroEwNckwjubRXp3a+hNubIq1G0HK79SMOVUQ7MGUJUGHTKPD0lZ6T+RGPkwpCs3me7FEtcosRDHh6IXpxCBt7UnZ4xWoguigWmbVk8xFBGkt1AsTJEmoCd6dBPAlL7jFRf9A9wg4f8fPsAk/U7E6MqhTrNZCXaAnwiMI7R0bzXe5wzG361fIkFV91VVSZzeVNGZ8HbrUeyoT/ljoyblzKkvvPRJGNrUqqWurMqIRpLVQ1xKkFGjcJj7Be1Y/a5WgGQ4j8K7d0VtjVt9uge/m46LUoKVQ53vwurNohAlfhxPk2HugpFiXLEdEsEeGp/AWzrwJ6nARKZKgHdEiCSNIO6HOB2d9gghGkcM08FoOCM3JML4u+Km6Lsig1iBk2FKo84tv9QkSGEWiM1+5PVWqfe7Uc+R93ZIhiyAthTpHkFYLb7ZHbj337jsKZEjtPsqVF6dYLYU6d7lCK4KUg1n+pATxLH/oriRGhlTEdseS5X+thHpvBIlMncqdMy8JMmiR8+ySCNJqRb03gpBPjiNH8uXbIEMhMmRpkJZCndsy8hxXp61zGP0FMlQkQzZBWgn1SyGIXSmmdQYCd9gOh4NJ0+UAZrQ3shywp/Pu9B+xK42clItmzkQHexrHTTevS0qxWgp1m3bQv34AXm2vHlpdSWnr4X270Dulp46Xx9GYW7Kmq5XUT4FhNQSSCdJKqFdrMfPgmlOqtIOYXi856nmu9uO9cwSSCdJKqLdwVCUy7NMqkKGFD2u/I5kgLVfUSzYeZCiJZj/PSiZIK6Ge4wKQIQc92LoIJBMkJNTPeaS0FhnsMU+aifLvAkYI9YOAiiC+UF/68lBpGFuQAbNJpb122c9TEcQT6lUOyYAMlx1Yz6X2KoLMdUj+1vNKG/Sw6vxcovSM7VARhOp7TLPSCAIynNHbeHUyAmqCHKd7jwTxP4cGMiT7AwYrQ0BNkOMoMny2R04Fly2kNh9pUipiKF8UgSyCWCHtzvxwGw0jtQcZiroWDyuBQBZBQhXgjsvubZIucyvRUDwDCGgQKE6QwEo7yKDxDGxWgUBxglCrSIvQv+e+7GAVCKMSF41AFYJcNCKoPBBwEABBEA5AIIIACILwAAIgCGIACOgQwAiiww1WnSAAgnTiaDRThwAIosMNVp0gAIJ04mg0U4cACKLDDVadIACCdOJoNFOHAAiiww1WnSAAgnTiaDRThwAIosMNVp0gAIJ04mg0U4cACKLDDVadIACCdOJoNFOHAAiiww1WnSAAgnTiaDRThwAIosMNVp0gAIJ04mg0U4cACKLDDVadIACCdOJoNFOHAAiiww1WnSAAgnTiaDRThwAIosMNVp0gAIJ04mg0U4cACKLDDVadIACCdOJoNFOHAAiiww1WnSAAgnTiaDRThwAIosMNVp0gAIJ04mg0U4cACKLDDVadIACCdOJoNFOHAAiiww1WnSAAgnTiaDRThwAIosMNVp0gAIJ04mg0U4cACKLDDVadIACCdOJoNFOHAAiiww1WnSAAgnTiaDRTh8D/AcTIYddC6iCLAAAAAElFTkSuQmCC;" vertex="1" parent="1">
          <mxGeometry x="1365" y="778.5" width="49" height="49" as="geometry" />
        </mxCell>
        <mxCell id="vRT_TVWz7FN-6WbVA6KG-105" value="复活池" style="rounded=1;whiteSpace=wrap;html=1;strokeColor=none;" vertex="1" parent="1">
          <mxGeometry x="1106" y="618" width="135" height="40" as="geometry" />
        </mxCell>
        <mxCell id="vRT_TVWz7FN-6WbVA6KG-106" value="" style="shape=image;verticalLabelPosition=bottom;labelBackgroundColor=default;verticalAlign=top;aspect=fixed;imageAspect=0;image=data:image/png,iVBORw0KGgoAAAANSUhEUgAAAMgAAADICAYAAACtWK6eAAAAAXNSR0IArs4c6QAAEM5JREFUeF7tXV1227gOJuXTnG6iafo0ySqariTNStKsJO1K6q6ivU/jSTfRkx6L95CWHNlxJFIU8Uf4aaahKBLAR+ADQcr+evfmu7H22uhv45rm09Xmz6ZmUfy8eHth2/bfmmXQz90Zc287gXw3xlzULhQvkKvHpy81y+Hn+dkXa8xdzTLo5r65fHz6YP3/qFCezcE1zYdavYh6j4EddItlAIj//To/8261ei9ijfn6z+PTbY0rqIbbe60H7+H/bw8Q9SKD1cO526vff7/WBBL1HgdRhOei6wOAqBc5gEN1hF0jiE7/zq0vf//91FvD3oMELnLx9tq2rSfs1f9qIuwaPbzOQQ8A4pv97/zswRnzuXqEGGNqIey/zs+c6tuYU4viC4Bo2vdlJkOy8aj3eEnMh/p+ARBN+x7Cods8DIRN2k+J+fRieBIgStjrIOzqPca9x4ss1tAsVHjTqwtnj6Le44CY79O6xzp91YOoF3kRaonaYddNwZ1+pzaGRwGihF2mF9F0/rNeLx+fRjEw+kcl7DK9iG4K7vQas9c1CRANtWQRduWW08R8qPEogKhQZYRaSszjiHkyQNSLyAi1dKHr9HhUbzWWjYzyIIGLaJ3WXo4xsSu1FLB6jwPvEZ2RjAaI717rtOYJmQJYVHfxxHxWiNV5EX9eWY/nhhSIW7vV6pbD6UP1HmnEfDZANO17xEWYnGHXtO487+GfSgqxevNQgT+vSNRvQlFiPt97zAaICp1P2lfPenTeY3elU3JV9iwPomlfHmlfXcjS07rHCZXZANE6rYEoE/LqUBktJebPkp6qt1pkH+RUJ7pCDUItYjehqG7mE/OsLNYxUJSw0yPs6j3yiPmiANGVih5h17MenfdYwKvP5iBDlKkXGYAE+epSLQlaznvMTvMeh1mqFDqEXRerfVo3ut6qGEkfdqy1PviEXcPdZYj5ohyk70zTvgfrEPjVpUrMlw2t+t4W4SB7kOi3JfZagi6JV++xvPdYjIMoYT8dxUJdXareo4z3KAIQXcl2yvLXybTO/YD4jEJIkmy3d8Za/32Xar/xUuIWzEVDrB7HNWVSAhCM+c84tzGr1ZrC+RAPGLPdXnjAWOc+VgGcQuU+RQDSpX0fJK5mvWegAoaxFOXwbwE0bXstFTClwtkiAPGKkRJqcQXEFHD2gDHmhvtCVjIhUg4gu88JszyeC8kfpgwZ4u8eLE3b3jhj/OfAuXGY/fcES8iqGEC4eZHaQPGaMXEj/CW9R5Es1rHgqRP2AIymuadArkusgDl9/nz35rO11n8znapXKeo9QABCtU7LLVDpmWN8nJ6lCpQSad1jvRQNsfqXkanT8lf1GPMNYm+CEwBixzoIvzxXQf2VDq36yYEABL1Oa3eHlQ+jkg/to1oB0ZcTSOMXD61AAYJJ2DWUKocyrNALynuAcJCheiAJO6QQy5kgj567EBoqRQzmPcABArF5qFkpHFD5MLpp2ztnzOeSI4Ag5sPxg3AQIC/iz2D4u3KVZ5S00Im+i4ZdheqtxqYEDpAiaV8EwSHaIPlXl/ImpeqtSAFkacIO7XLJWyehAS7pTbA4JbgHCQBZok6LodfwBhPsd3duwzTGvO/t2Tl3sFttrd34v4VS+udGvqTe//uGy85/0PV2+2Cszdk7ASXmqBykf3kOYcdaTWIX5wAEay88AIoWADoX+Jaz9odpGv/fZIHDVd8oHqQ3tDlpX4ohlQdEY+3HomCIRWcPmtXqnhpgZoZcaN4DPM17rONOYP5g1fSP0BedSAFiSnLOrX241jbNNwoZvtRdeOwFEdWDeN1GXZNJgG8wPzOxg5FfZHbh2FdsDhOjdwqhNDpApgg7tpBmhgVT6zr+3wmAZYKXoIZWvYLQATKW9sWqoyqVx8dHxekRYFYfvAYS7IWRFEBCqHV+9u/wYA5G7DkIo4qWS1AFCtaXe0+AhIT3QCfpQ0MZCgkaHJTOOZAAD8LxgE7/4QIJaP2PyZxEiDVM+0LXU8WQRRJGizAI6NCrzw7+8/h0izDdk68kBRBIoeRsXEGOk8K7PBfkdg/YUnKrDiAaTs00HYSwa+ZIF32sKoBoOJVvO9BhV/6I83qoAiCpu7d5Iq3iafDvn2BJVTxAlGuUMy0qexXlZhhu6Zf5W6jMWqZwlpwVoRq5JafV9yUSIEVOLZaQvpw+xYZc4gCi4MBDHVZpUMkZiwJIUvl8SalW3Lc0kIgBiJJxOqiURN5FAET3N+iAox+JBwmFcye5kmEPEAVHrgmUe16CJ2ENEDK3xpezMfY9cwcJW4Ao5+CDHc4gYQkQzVbxAceQk1w9Pn3hNnJ2ABG7z9Fd1yP5m+YcU8CsANJd8OCP5sr5nSjVkHz0F+N+3RxjYQOQqdtPcoSA9awvHR87PSeUZ7EqS2EDEIHp3KiLCebcPokF+Nj3ciLtLAAicSWNDTWkJiS4gIQ8QISS8ijv0a/IEr2In1vsIhHrmUq0Iw0QkaQ83ADqblM+RS3Rg3bGTJ6P0AbI+dkXa8xdiZUBsc8k7yHeixhzT3l/hCxA1HscQliwFyEdapEFiMCslbf4Wd5DuhfBuvI0JoogCRCpq2Vu5kaqXAJhJxpqkQOI1NAq13uI9yJEs1r0ACKTmC+2QqoXiQmMlmtDCiDqPaYVK7HkZjhransjtACi3mMaIcYYyQfFqHERMgAR7D3M5ePTonIWWl2wXxwoeZFFFRe1/L3SSGpsXWpFVC+SY23xz5IAiHqPeIX1LdWLpMtszhM0AKLcY47uXnzXcVYnRB8q5XlTp0sCIL/Oz1zqwDm0Lx1LqxcpbwXoABGrZOfWl7//fiqtQqml8GF3PbHquYSs0QEilWyW9h57LvLuzWdr7UMJ48Duc+pIMsT4UAEimJxnFSWmKl60F2maD1ebP5tUmSzVHhcgUsl503y62vxZL6WkqX4k765jh1moAJG48mFlX8SCBIjLvbYIoQFEYniFBY6hcrsN1xtjzMWU5+Hydyg+d0oeeADhHF45t7bWblpj/jPObcxqtcaMk48V6xefAJC2vbbOfexua/TNWIIGM8xSgIwsoz6L4v/cOvcjNCMGhFQPMAROY8x759wFh6tOMbNZaAAhtDm4scYEQh2AsFqF/6bkEVKBkNp+D5ztNgBm4HVoeBxEHoICECT+EYBANSxKNWqo9n4jN7yrD9f8f1u7+zfAHxYPwQEIMP/AjGEBbQjsVV31g9+cBPMwWDoUDxAKmSUwywV+EWSaHouHoAAEUrBLH1YCtkHSrwOto0PiIVgAgareBS35IG3NhQYHmWzB4CHgAIEm6OpBCiGj61YBsrB8Qd0y0buWFhYpWnfQix0GUYf3INAZLKI39qFZ9YIvhr5HQAGyoPKGXWHEroWmQqZbaO8Rtl8mPllXQjjgHgTpUmry36EoodxSfQZwbLcP4BuGCJkseICcn/mv1IJtMA2MREGyAGLQwLEbO3hWEgMgUCneU+agIMkACYEzJwqQDP3FPqogiZXUoB0G5zg1TOi0fW0eZC9zJe7xKIFOzY+NTDRAqKxCvQIw0obxZkmjJSVweIlAL2ygHoQaQILACdy9RAMKL0dBDRwKECRL0YrfE+Aget+WdA9ybdv2OxIORl+rIHkWD/QOeYo9OOArlaoPsYbKUZDQ/ziPdA9yYdvWbxSS/XmQmKb5WtOZ9F4ZSFUOSbYgGiBeEpDl0UmSHzSuESQcwOFVJDrNywUgASvOrd1qdVuDJ+ECjloAglWLle5QKgAJJ3DUUovFByA7SIksTUEuOkxfrDpdXD4+fZj78JznQLNYXYjFDSAo5xDmKDPlGWaeo5+a/GJFrh/Mgc6epBh7alvK+xzjm1UwX+0ajgHcg7AFiKCSFKbew2DsU4ED5CfREoapVVhSzRbkvWRTck35ex0AuXhLttxkTFkYykkxnpS2XEMs6DITL1NwD8JqL2S4eQhcA5Ri8KltKVbpxswBepMQEyDcMlng2ZMYg8lpw6Gi4Wh+KDrA8SDv3nwHvxEjx5oQLgvIG+700+x4CMKNJmgehFsMLIl/9NDhlsnC0gGKB+EWA2OQw2kfkNeCW7odSwcoAOG2o45BDvPMf/ppbul2LB3gAYQPD0Ehh9MmnteCmRdH0wEaQLjwEIz7YPNMP/5pLpksLP6BRtL9i7msYJjKiTf1eS25ZLKw+AcqQLjwEEzlzDP7+KeYZLLQwit0gDDIpKAqJ97U57VkIH+UAsWhNNE4CJMwSzRAOGSysI8ZoAKEepglmX/oAhXnddEBQjmbJZl/7HfUz88wP0cxaqUUFih8gPivFe1uW8T4qM6ogqA2p7pQ564fjDPmG9TdXJQzWVDyHzMCdICEMIvmpmFx/jHlPf0hLbNarUtePURU9t4siss/JsgiARCKZLHkBmHifDfOuftSQKGayaJygpMEQCiS9RLx7yCUSg8n/R1dxny7+v33a8zKF9smEayx3ea2I+E90PdBhlKkpqglCXoWMI5NbXeZ3f3V5s861wqpZrKoeA9SAKHmRZYgiKGcZru9K3I4bCGgEPyoERnvQQ4ghLxIlpKKAuO0R8m6Q5hS0SIl70EOIJS8yBwPAgqMI6D4pELbND702qSEXsQ8SNbClDLv2LZkSHo/4KnUZ+zEctullDh4I2va9s4Z8zn3vbnPpwKFirz9vJfkfbly7J8nBxAy+yKRN7tTTpNOpYZJHTlAupRhCkgkAdK5ffTd9bHVmNLKO6bk1zYbCfG9MPwUjz1l1Ev+nSRAQvrx/OyLNWZffrHkpJP78t7E2h/+ucaY9xRCqdQ5hK9mPY//mlJpT4k9p1T5vNaeLEAoEfalhK39nJQAOWI+HCVpgJCKkdW6i0iAIjFnAxByoVYRE6m3U8qhFeks1rHJUC7Jrte8M2dONGt1PCvSIVY/WCpZrUyT0MefJUCad7AKsfYg2X14x2e10ith1TRJSYA672AJEOUjpGx89mA48A62AAmpX5qnD2cbTFUPMuEdrAESQHJ+xu0DPFXh4ORkGYLDz4MFST8lcAUJK8yxIeUss1inTEEzW2wAwhYcrD1IIO2ErwxiY75lB7rpMlZJZ1TKDimtd7Yhlu6RpCkaobUHhz/puMjZeYTxh1eyB4h6EizTGX2vCHCIAYiChBBImGarXpOgCA8ynBzVE36ETLjcUISBQ5QHUZCUs/uYnkveRBnz/lJtxHmQPXnfnUi80dqtUqbz3C+38pEUiYgFSMdLrm3bPihIUkwiqa0YMl4NBzk1UeUlSUYf1VhqSHU8edEeZDjZRe/HjTIhuY04lavnaqEagOxTwdvtQ5G7cnM1weH5yLvCOEwldoxVAWRP4P2l0spNYm3EtxPPNarmIK9Nvrt7SzNdI1CRnKGKWSGq9CAH3OT5Xl1Sl6nFKK9km9Q7fkuOBbPv6gEyDLuatr1xxlQNFAXGIRwVIEfL0+Cm9qqAosA47acUICP+u9s/EQ2U2jnGVPimAJmS0O5g1rWk8KvzFt+4n9WIUF12EwVIoggHX5Hy93OxuaMrgMK5H0t/JTdRfOyaK0AyVObBYtr22jr30VhLCjAeEH5qCooMBUs5UZgnguWexgSMAmI5PQ57Ug9SRq6hV58RC2HYdnvhPczA0/RvTQnRwsUH1phwxtt7BrNa+X/bpH64s+CUxXWtACGg0g5IfiQeMPsbQNTw8ZWjAMHXgY6AsAQUIISVo0PDl4ACBF8HOgLCElCAEFaODg1fAgoQfB3oCAhLQAFCWDk6NHwJ/B/uplnakvPufQAAAABJRU5ErkJggg==;" vertex="1" parent="1">
          <mxGeometry x="1358" y="697" width="44" height="44" as="geometry" />
        </mxCell>
        <mxCell id="vRT_TVWz7FN-6WbVA6KG-107" value="晋级" style="rounded=1;whiteSpace=wrap;html=1;strokeColor=none;" vertex="1" parent="1">
          <mxGeometry x="1346" y="740" width="68" height="30" as="geometry" />
        </mxCell>
        <mxCell id="vRT_TVWz7FN-6WbVA6KG-109" value="晋级六个课题" style="rounded=0;whiteSpace=wrap;html=1;" vertex="1" parent="1">
          <mxGeometry x="1200" y="980" width="120" height="60" as="geometry" />
        </mxCell>
        <mxCell id="vRT_TVWz7FN-6WbVA6KG-112" value="&#xa;&lt;span style=&quot;color: rgba(0, 0, 0, 0); font-family: monospace; font-size: 0px; font-style: normal; font-variant-ligatures: normal; font-variant-caps: normal; font-weight: 400; letter-spacing: normal; orphans: 2; text-align: start; text-indent: 0px; text-transform: none; widows: 2; word-spacing: 0px; -webkit-text-stroke-width: 0px; white-space: nowrap; background-color: rgb(251, 251, 251); text-decoration-thickness: initial; text-decoration-style: initial; text-decoration-color: initial; display: inline !important; float: none;&quot;&gt;%3CmxGraphModel%3E%3Croot%3E%3CmxCell%20id%3D%220%22%2F%3E%3CmxCell%20id%3D%221%22%20parent%3D%220%22%2F%3E%3CmxCell%20id%3D%222%22%20value%3D%22%E6%89%80%E6%9C %89%E8%8E%B7%E5%BE%97%E5%85%B6%E5%AE%83%E5%90%8D%E6%AC%A1%E7%9A%84%E8%AF%BE%E9%A2%98%22%20style%3D%22rounded%3D1%3BwhiteSpace%3Dwrap%3Bhtml%3D1%3BstrokeColor%3Dnone%3BB22%20vertex%3D%221%22%20parent%3D%221%22%3E%3CmxGeometry%20x%3D%22692%22%20y%3D%22618%22%20width%3D%22135%22%20height%3D%2240%22%20as%3D%22geometry%22%2F%3E%3C%2FmxCell%3E%3C%2Froot%3E%3C%2FmxGraphModel%3E" style="shape=ext;double=1;rounded=1;whiteSpace=wrap;html=1;" vertex="1" parent="1">
          <mxGeometry x="240" y="1290" width="920" height="340" as="geometry" />
        </mxCell>
        <mxCell id="vRT_TVWz7FN-6WbVA6KG-113" value="&#xa;&lt;span style=&quot;color: rgba(0, 0, 0, 0); font-family: monospace; font-size: 0px; font-style: normal; font-variant-ligatures: normal; font-variant-caps: normal; font-weight: 400; letter-spacing: normal; orphans: 2; text-align: start; text-indent: 0px; text-transform: none; widows: 2; word-spacing: 0px; -webkit-text-stroke-width: 0px; white-space: nowrap; background-color: rgb(251, 251, 251); text-decoration-thickness: initial; text-decoration-style: initial; text-decoration-color: initial; display: inline !important; float: none;&quot;&gt;%3CmxGraphModel%3E%3Croot%3E%3CmxCell%20id%3D%220%22%2F%3E%3CmxCell%20id%3D%221%22%20parent%3D%220%22%2F%3E%3CmxCell%20id%3D%222%22%20value%3D%22%E6%89%80%E6%9C %89%E8%8E%B7%E5%BE%97%E5%85%B6%E5%AE%83%E5%90%8D%E6%AC%A1%E7%9A%84%E8%AF%BE%E9%A2%98%22%20style%3D%22rounded%3D1%3BwhiteSpace%3Dwrap%3Bhtml%3D1%3BstrokeColor%3Dnone%3BB22%20vertex%3D%221%22%20parent%3D%221%22%3E%3CmxGeometry%20x%3D%22692%22%20y%3D%22618%22%20width%3D%22135%22%20height%3D%2240%22%20as%3D%22geometry%22%2F%3E%3C%2FmxCell%3E%3C%2Froot%3E%3C%2FmxGraphModel%3E" style="shape=ext;double=1;rounded=1;whiteSpace=wrap;html=1;" vertex="1" parent="1">
          <mxGeometry x="270" y="1710" width="920" height="340" as="geometry" />
        </mxCell>
      </root>
    </mxGraphModel>
  </diagram>
</mxfile>
